<?xml version="1.0" standalone="no"?>
<!DOCTYPE svg PUBLIC "-//W3C//DTD SVG 20010904//EN"
 "http://www.w3.org/TR/2001/REC-SVG-20010904/DTD/svg10.dtd">
<svg version="1.0" xmlns="http://www.w3.org/2000/svg"
 width="587.000000pt" height="587.000000pt" viewBox="0 0 587.000000 587.000000"
 preserveAspectRatio="xMidYMid meet">
<metadata>
Created by potrace 1.14, written by Peter Selinger 2001-2017
</metadata>
<g transform="translate(0.000000,587.000000) scale(0.100000,-0.100000)"
fill="#000000" stroke="none">
<path d="M801 5832 c0 -20 -1 -46 -1 -57 0 -226 -1 -237 -15 -247 -6 -5 -6 -8
2 -8 8 0 11 -25 9 -86 -1 -47 1 -87 5 -90 4 -2 5 -20 3 -41 -2 -20 1 -42 7
-49 6 -7 7 -19 3 -26 -5 -7 -9 -26 -10 -43 -1 -16 1 -24 3 -17 3 6 9 12 15 12
16 0 40 29 33 40 -10 16 11 12 25 -5 7 -9 19 -14 26 -11 7 3 14 0 17 -7 2 -8
6 -7 11 2 5 8 1 14 -13 18 -11 3 -18 9 -15 14 5 9 -2 12 -31 12 -30 0 -35 -3
-35 -22 0 -11 -5 -23 -11 -27 -8 -4 -9 1 -3 17 4 13 7 32 6 42 0 9 3 17 9 17
5 0 9 -5 9 -12 0 -6 7 -3 15 8 10 13 13 14 10 3 -4 -10 0 -16 10 -16 8 0 15 4
15 9 0 5 6 3 14 -4 8 -7 12 -16 10 -19 -2 -4 4 -9 14 -11 15 -4 18 1 17 26 -1
17 2 40 6 51 7 19 8 19 8 -1 1 -25 52 -57 58 -36 3 6 9 10 14 6 13 -7 11 10
-2 23 -8 8 -8 13 1 18 7 4 14 -1 17 -14 3 -12 8 -20 12 -19 3 2 25 12 48 22
40 17 43 21 41 55 0 21 2 43 6 49 3 6 2 13 -4 17 -18 11 -11 54 12 75 27 25
29 47 6 79 -22 29 -23 45 -2 62 9 7 14 22 11 36 -2 13 1 23 7 23 6 0 4 6 -5
13 -33 25 -37 47 -18 88 34 68 31 70 -181 69 l-188 -1 -1 -37z m109 12 c0 -2
-7 -4 -15 -4 -8 0 -15 4 -15 10 0 5 7 7 15 4 8 -4 15 -8 15 -10z m80 -31 c0
-5 -5 -15 -11 -23 -9 -13 -10 -13 -6 2 3 9 1 19 -6 22 -7 2 -4 5 6 5 9 1 17
-2 17 -6z m-10 -128 c7 -9 8 -15 2 -15 -5 0 -12 7 -16 15 -3 8 -4 15 -2 15 2
0 9 -7 16 -15z m80 -13 c0 -9 -9 -23 -19 -29 -19 -12 -19 -12 -3 17 20 35 22
36 22 12z m45 -2 c3 -5 2 -10 -4 -10 -5 0 -13 5 -16 10 -3 6 -2 10 4 10 5 0
13 -4 16 -10z m-250 -39 c-3 -6 -11 -11 -16 -11 -5 0 -4 6 3 14 14 16 24 13
13 -3z m195 -31 c0 -4 -9 -6 -21 -3 -15 4 -17 8 -8 14 14 8 29 3 29 -11z m-85
-28 c-3 -3 -11 0 -18 7 -9 10 -8 11 6 5 10 -3 15 -9 12 -12z m141 -19 c-7 -7
-26 7 -26 19 0 6 6 6 15 -2 9 -7 13 -15 11 -17z m-60 -10 c-10 -10 -19 5 -10
18 6 11 8 11 12 0 2 -7 1 -15 -2 -18z m-192 -242 c-5 -3 -12 -10 -15 -14 -4
-4 -9 -1 -13 8 -3 9 -2 13 4 10 6 -3 10 -1 10 5 0 6 5 8 11 4 6 -3 7 -9 3 -13z
m23 -3 c-3 -8 -6 -5 -6 6 -1 11 2 17 5 13 3 -3 4 -12 1 -19z"/>
<path d="M1259 5861 c12 -8 11 -13 -10 -30 -19 -17 -21 -20 -7 -21 18 0 14
-30 -4 -30 -5 0 -6 5 -3 10 3 6 1 10 -5 10 -8 0 -9 -7 -5 -17 13 -33 15 -74 3
-67 -8 5 -9 -4 -5 -30 3 -22 2 -34 -4 -31 -5 4 -9 1 -9 -5 0 -6 10 -8 24 -4
22 5 24 3 18 -18 -3 -12 -12 -30 -20 -38 -10 -9 -11 -15 -3 -18 6 -2 11 -13
11 -23 0 -11 -4 -18 -9 -14 -5 3 -12 1 -16 -4 -3 -5 3 -14 12 -20 12 -7 14
-13 8 -18 -13 -10 -17 -55 -6 -63 5 -3 11 -16 15 -30 5 -17 4 -20 -2 -12 -8
11 -10 11 -15 -2 -3 -8 -1 -17 6 -19 9 -3 9 -8 -1 -20 -8 -9 -12 -26 -11 -39
2 -13 -3 -33 -9 -45 -11 -21 -10 -23 8 -23 11 0 20 -4 20 -10 0 -5 -5 -10 -11
-10 -8 0 -8 -4 -1 -12 19 -24 18 -53 -2 -69 -17 -14 -18 -19 -7 -33 11 -13 11
-17 -3 -22 -9 -3 -13 -11 -9 -17 4 -7 8 -20 8 -30 1 -10 7 -22 13 -26 7 -4 8
-12 2 -21 -8 -13 -10 -12 -10 3 0 10 -4 16 -10 12 -5 -3 -7 -13 -4 -23 5 -14
4 -14 -4 -2 -16 21 -68 1 -64 -24 3 -14 -1 -17 -12 -13 -12 5 -16 0 -16 -22 0
-16 7 -31 15 -35 8 -3 15 -10 15 -17 0 -6 -7 -9 -14 -6 -10 4 -13 1 -9 -9 3
-7 11 -14 18 -14 7 0 15 -6 18 -12 3 -10 8 -10 18 1 11 10 11 15 1 18 -6 3 -9
9 -6 15 4 6 1 14 -6 18 -10 6 -8 15 10 37 21 26 22 26 17 5 -4 -19 -3 -21 9
-11 7 6 11 15 8 20 -3 5 2 9 12 9 13 0 14 -3 4 -15 -7 -8 -9 -15 -4 -15 5 0 1
-5 -8 -11 -10 -5 -18 -15 -18 -20 0 -6 4 -8 9 -4 5 3 12 1 16 -5 3 -5 1 -10
-4 -10 -6 0 -11 -11 -11 -25 0 -14 -5 -24 -11 -22 -6 1 -14 -5 -16 -13 -4 -13
-3 -13 6 0 9 13 11 13 11 -2 0 -10 7 -18 16 -18 8 0 12 -4 9 -10 -3 -5 -1 -10
5 -10 6 0 4 -8 -6 -17 -11 -12 -13 -18 -5 -21 9 -3 7 -10 -5 -23 -9 -11 -14
-22 -11 -26 4 -3 7 -1 7 5 0 7 4 12 10 12 16 0 -1 -30 -19 -31 -13 0 -12 -2 3
-8 15 -6 16 -10 7 -16 -11 -6 -11 -9 0 -15 10 -7 10 -12 -2 -26 -8 -10 -9 -15
-4 -12 6 4 17 3 25 -3 11 -6 12 -9 2 -9 -7 0 -12 -6 -11 -12 3 -20 -12 -49
-22 -42 -5 3 -9 0 -9 -7 0 -6 8 -9 19 -6 14 3 18 1 14 -9 -3 -8 -9 -14 -14
-14 -5 0 -9 -9 -9 -20 0 -12 6 -20 13 -19 39 5 55 -24 17 -34 -24 -6 -27 -37
-4 -37 25 0 10 -25 -17 -27 -21 -2 -21 -2 -5 5 17 7 17 9 4 15 -10 3 -19 0
-22 -9 -10 -26 -7 -32 14 -27 21 6 29 -20 10 -32 -8 -5 -7 -12 2 -23 10 -12
10 -14 1 -8 -21 12 -15 -9 7 -29 15 -14 17 -20 8 -26 -7 -4 -16 -3 -21 4 -6 8
-7 7 -4 -5 7 -20 -20 -33 -38 -18 -9 8 -14 7 -18 -3 -7 -19 65 -16 80 3 6 8
15 12 19 7 4 -4 2 -7 -5 -7 -7 0 -9 -4 -6 -10 3 -5 2 -10 -3 -10 -12 0 -10
-33 2 -41 4 -4 3 -10 -3 -13 -6 -4 -12 -2 -12 3 -1 6 -2 15 -3 20 0 5 -5 13
-9 18 -12 11 -4 -90 8 -103 15 -17 27 -6 20 19 -5 19 -5 20 5 4 6 -9 8 -22 4
-28 -6 -11 -16 -71 -18 -116 0 -13 -4 -23 -7 -23 -4 0 2 -17 12 -37 16 -33 17
-43 6 -75 -7 -21 -16 -40 -20 -44 -3 -3 -2 -17 3 -29 8 -20 5 -25 -12 -31 -11
-3 -16 -9 -11 -13 11 -7 14 -41 4 -41 -4 0 -8 -12 -9 -27 -1 -19 1 -24 7 -14
7 11 13 11 32 0 15 -7 19 -14 11 -17 -6 -2 -12 -10 -12 -18 0 -9 -5 -25 -12
-37 -11 -21 -11 -21 -19 -2 -6 17 -8 17 -8 3 -1 -10 -8 -18 -16 -18 -13 0 -20
-19 -16 -43 1 -5 -3 -6 -8 -2 -12 7 -30 -25 -24 -42 8 -23 -25 -13 -46 13 -23
29 -27 54 -10 54 8 0 10 14 6 40 -3 22 -1 40 4 40 5 0 9 5 9 11 0 5 -4 7 -10
4 -6 -3 -7 1 -4 9 3 9 1 16 -5 16 -7 0 -8 8 -2 23 4 12 7 27 5 32 -2 6 7 11
21 11 28 2 29 1 15 -29 -10 -22 -10 -22 6 1 9 12 21 22 26 22 6 0 5 -7 -2 -15
-11 -13 -10 -14 4 -9 13 5 15 2 9 -12 -6 -16 -5 -17 9 -4 9 8 12 17 7 20 -4 3
-2 18 6 34 16 30 20 75 8 77 -52 8 -62 7 -56 -7 3 -9 -1 -14 -13 -14 -15 0
-16 -2 -5 -9 8 -5 10 -14 6 -21 -5 -9 -4 -11 3 -6 7 4 12 1 12 -7 0 -8 -9 -13
-22 -11 -13 1 -30 3 -38 4 -13 1 -13 3 1 12 13 9 14 16 3 47 -6 19 -9 47 -6
61 3 14 5 40 5 57 0 21 4 31 11 27 6 -3 0 4 -14 17 -17 14 -21 23 -12 26 6 3
12 20 12 38 0 20 6 35 15 39 8 3 15 1 15 -5 0 -6 7 -3 16 6 9 9 19 13 23 9 3
-4 0 -9 -6 -11 -19 -7 -16 -43 3 -50 10 -4 22 0 29 10 7 9 14 14 17 12 3 -3
13 6 22 20 15 22 15 26 2 31 -8 3 -20 3 -25 -1 -7 -3 -8 0 -5 9 7 18 -11 22
-22 5 -3 -6 -17 -8 -30 -5 -18 5 -22 3 -18 -8 5 -13 2 -13 -20 -3 -26 12 -35
27 -16 27 6 0 10 5 10 10 0 17 -14 11 -28 -11 -10 -15 -10 -24 -2 -34 8 -9 7
-14 -4 -18 -10 -4 -13 -18 -9 -51 3 -37 1 -46 -11 -46 -20 0 -20 -14 -1 -30
10 -8 13 -21 9 -33 -4 -11 -1 -23 7 -28 11 -6 9 -13 -9 -29 -18 -17 -22 -28
-17 -51 5 -21 3 -29 -7 -29 -8 0 -7 -4 5 -11 13 -8 15 -14 7 -30 -8 -15 -7
-21 4 -25 12 -5 13 -11 4 -30 -8 -17 -8 -27 1 -38 9 -10 11 -29 6 -56 -4 -22
-6 -42 -5 -45 0 -3 -6 -13 -15 -21 -18 -19 -20 -55 -2 -73 10 -10 8 -11 -8 -6
-17 6 -18 5 -5 -7 21 -18 23 -38 4 -38 -8 0 -12 -5 -9 -10 4 -6 10 -8 15 -5 5
3 11 1 15 -5 3 -5 1 -10 -4 -10 -6 0 -11 -9 -11 -21 0 -11 4 -18 9 -15 5 4 19
-6 30 -21 20 -27 21 -28 27 -6 6 22 46 40 52 23 2 -5 9 -4 16 3 8 6 11 18 8
26 -4 11 -1 13 13 7 11 -4 16 -4 13 -1 -4 4 4 26 17 49 21 37 22 43 8 61 -8
11 -19 19 -25 17 -13 -3 -5 21 8 25 6 2 16 -7 22 -19 12 -23 12 -23 6 2 -4 14
-3 22 1 18 17 -16 22 -74 8 -87 -8 -7 -12 -22 -10 -32 3 -11 1 -16 -4 -13 -6
3 -8 -10 -6 -32 4 -37 27 -62 27 -29 0 9 4 14 9 10 5 -3 9 -19 9 -35 -1 -17 2
-33 5 -36 3 -4 -1 -13 -9 -21 -8 -8 -11 -20 -7 -26 12 -19 21 -87 11 -87 -5 0
-6 -4 -3 -10 3 -5 3 -15 -1 -22 -4 -7 -9 -26 -11 -42 -2 -17 -9 -33 -15 -37
-17 -11 -3 -23 17 -16 8 4 15 15 15 25 0 11 11 31 24 45 14 15 27 36 31 47 3
11 13 20 20 20 29 0 84 108 58 111 -5 0 -18 2 -30 5 -13 2 -32 5 -43 7 -11 2
-21 5 -24 8 -6 6 -19 121 -17 144 3 27 4 101 2 150 -1 22 -1 76 -1 120 0 44 0
91 0 105 -3 88 5 300 10 300 4 0 5 15 4 33 -4 41 -4 167 1 277 10 202 10 260
3 260 -13 0 -9 55 4 68 14 14 18 112 6 112 -4 0 -7 3 -7 8 1 4 0 9 -1 12 -9
22 -4 53 12 66 13 13 16 26 12 53 -8 59 -10 161 -3 161 4 0 5 9 2 20 -3 11
-10 20 -15 20 -12 0 -5 47 13 84 11 23 11 30 1 34 -13 4 -17 32 -4 32 11 0 7
77 -5 92 -11 13 -10 34 2 78 10 37 20 304 13 370 0 8 2 27 7 43 7 26 6 27 -31
27 -28 0 -35 -3 -25 -9z m-2 -387 c-3 -3 -12 -4 -19 -1 -8 3 -5 6 6 6 11 1 17
-2 13 -5z m-12 -24 c3 -5 1 -10 -4 -10 -6 0 -11 5 -11 10 0 6 2 10 4 10 3 0 8
-4 11 -10z m12 -172 c-3 -8 -6 -5 -6 6 -1 11 2 17 5 13 3 -3 4 -12 1 -19z m3
-192 c0 -2 -7 -9 -15 -16 -13 -11 -14 -10 -9 4 5 14 24 23 24 12z m-120 -170
c0 -3 -4 -8 -10 -11 -5 -3 -10 -1 -10 4 0 6 5 11 10 11 6 0 10 -2 10 -4z m101
-74 c-6 -2 -9 -8 -5 -13 3 -5 -2 -9 -11 -9 -14 0 -14 3 2 26 11 18 19 22 22
13 2 -7 -1 -15 -8 -17z m2 -219 c-7 -2 -9 -11 -6 -19 3 -8 -1 -14 -9 -14 -7 0
-14 9 -14 19 0 11 4 17 8 15 4 -3 8 3 8 12 0 15 2 16 13 5 9 -10 9 -15 0 -18z
m-13 -233 c0 -5 -4 -10 -10 -10 -5 0 -10 5 -10 10 0 6 5 10 10 10 6 0 10 -4
10 -10z m10 -140 c0 -5 -2 -10 -4 -10 -3 0 -8 5 -11 10 -3 6 -1 10 4 10 6 0
11 -4 11 -10z m-50 -230 c0 -5 -10 -10 -22 -10 -19 0 -20 2 -8 10 19 13 30 13
30 0z m-57 -35 c-3 -9 -8 -14 -10 -11 -3 3 -2 9 2 15 9 16 15 13 8 -4z m25
-282 c-6 -7 -16 -13 -22 -12 -7 0 -6 2 2 6 6 2 12 17 13 31 0 24 1 25 8 7 5
-11 4 -25 -1 -32z m-18 27 c0 -5 -5 -10 -11 -10 -5 0 -7 5 -4 10 3 6 8 10 11
10 2 0 4 -4 4 -10z m95 -109 c-3 -6 -11 -8 -17 -5 -6 4 -5 9 3 15 16 10 23 4
14 -10z m-35 -139 c0 -10 -6 -19 -14 -19 -11 0 -12 4 -3 19 7 10 13 18 14 18
2 0 3 -8 3 -18z m-40 -104 c0 -19 -16 -5 -17 14 -2 18 0 20 7 8 5 -8 10 -18
10 -22z m30 -7 c0 -21 -13 -4 -17 22 -2 17 -1 19 7 7 5 -8 10 -21 10 -29z
m-64 -6 c4 -8 10 -12 15 -9 5 3 9 -7 9 -21 0 -17 -5 -25 -12 -22 -7 2 -21 0
-30 -4 -12 -7 -21 -3 -32 13 -19 27 -11 41 20 34 25 -7 34 8 12 17 -10 4 -10
6 0 6 7 1 15 -6 18 -14z m41 -37 c-3 -8 -6 -5 -6 6 -1 11 2 17 5 13 3 -3 4
-12 1 -19z m77 -33 c-4 -8 -8 -15 -10 -15 -2 0 -4 7 -4 15 0 8 4 15 10 15 5 0
7 -7 4 -15z"/>
<path d="M3288 5863 c6 -2 18 -2 25 0 6 3 1 5 -13 5 -14 0 -19 -2 -12 -5z"/>
<path d="M1220 5850 c0 -5 5 -10 10 -10 6 0 10 5 10 10 0 6 -4 10 -10 10 -5 0
-10 -4 -10 -10z"/>
<path d="M2702 5828 c3 -7 19 -13 37 -14 42 -2 35 20 -8 24 -24 3 -32 0 -29
-10z"/>
<path d="M2870 5816 c0 -9 5 -16 10 -16 6 0 10 4 10 9 0 6 -4 13 -10 16 -5 3
-10 -1 -10 -9z"/>
<path d="M3026 5822 c-2 -4 -1 -14 3 -21 5 -7 6 -22 4 -32 -4 -14 0 -19 14
-19 29 0 61 47 43 63 -11 10 -59 17 -64 9z"/>
<path d="M3880 5820 c0 -5 5 -10 11 -10 5 0 7 5 4 10 -3 6 -8 10 -11 10 -2 0
-4 -4 -4 -10z"/>
<path d="M3242 5793 c-16 -6 3 -33 23 -33 8 0 15 -5 17 -12 2 -6 12 -12 21
-14 13 -2 17 5 17 27 0 16 -3 30 -7 30 -34 5 -60 6 -71 2z"/>
<path d="M3524 5754 c-4 -10 -9 -22 -11 -26 -2 -5 2 -8 10 -8 19 0 31 30 18
43 -7 7 -13 4 -17 -9z"/>
<path d="M3082 5732 c-12 -11 -19 -21 -17 -24 3 -3 -1 -23 -9 -45 -14 -39 -13
-43 10 -77 27 -39 39 -44 48 -20 3 8 2 12 -4 9 -12 -8 -12 -3 0 29 5 14 5 28
1 30 -5 3 -5 27 0 53 11 55 1 71 -29 45z"/>
<path d="M3844 5733 c2 -10 7 -28 11 -41 8 -27 26 -24 41 6 6 12 14 19 19 14
4 -4 2 3 -4 16 -15 28 -75 33 -67 5z"/>
<path d="M3405 5720 c-3 -5 6 -20 21 -32 14 -13 40 -52 56 -88 44 -98 51 -110
57 -105 9 9 8 65 -1 65 -5 0 -6 5 -3 10 3 6 1 10 -6 10 -7 0 -9 3 -6 7 4 3 -3
22 -15 42 -41 67 -90 111 -103 91z"/>
<path d="M636 5675 c-11 -29 -7 -55 9 -55 16 0 20 36 6 58 -7 11 -10 10 -15
-3z"/>
<path d="M3580 5676 c-13 -16 -7 -46 9 -46 12 0 22 43 12 53 -4 4 -14 1 -21
-7z"/>
<path d="M3905 5660 c3 -5 2 -10 -2 -10 -12 0 -33 -60 -33 -94 0 -14 6 -29 14
-32 8 -3 12 -12 10 -19 -3 -7 3 -18 14 -24 16 -8 21 -7 26 4 3 8 2 15 -3 15
-4 0 -7 38 -5 85 3 71 1 85 -12 85 -8 0 -12 -4 -9 -10z"/>
<path d="M2927 5653 c-11 -10 -8 -43 3 -43 6 0 10 11 10 25 0 26 -2 29 -13 18z"/>
<path d="M3040 5471 c13 -25 27 -34 41 -26 13 9 -18 45 -38 45 -10 0 -11 -5
-3 -19z"/>
<path d="M3536 5468 c3 -5 10 -6 15 -3 13 9 11 12 -6 12 -8 0 -12 -4 -9 -9z"/>
<path d="M3855 5430 c-9 -15 12 -47 35 -53 14 -4 19 -1 16 6 -3 7 -9 20 -12
29 -7 20 -31 31 -39 18z"/>
<path d="M3065 5372 c-6 -4 -16 -19 -22 -34 -10 -23 -10 -28 2 -28 7 0 21 10
29 22 25 35 19 61 -9 40z"/>
<path d="M3862 5314 c4 -3 2 -19 -2 -35 -11 -36 4 -38 34 -6 17 19 19 26 9 35
-12 12 -52 18 -41 6z"/>
<path d="M3101 5298 c-1 -10 -5 -18 -10 -18 -11 0 -33 -59 -25 -71 3 -5 0 -9
-5 -9 -6 0 -11 -7 -11 -15 0 -8 6 -12 14 -9 8 3 13 0 13 -8 -1 -7 3 -14 8 -15
6 -2 10 5 11 15 0 9 6 34 12 54 6 23 7 49 2 65 -5 16 -9 21 -9 11z"/>
<path d="M630 5240 c0 -5 6 -10 13 -10 7 0 8 -3 2 -8 -5 -4 -11 -16 -13 -27
l-2 -20 11 20 c7 11 16 22 20 25 5 3 -1 11 -11 18 -12 7 -20 8 -20 2z"/>
<path d="M3914 5228 c-4 -13 -11 -26 -17 -30 -6 -3 -12 -12 -13 -20 -2 -7 -5
-24 -8 -37 -4 -19 -2 -22 14 -18 10 3 21 0 24 -7 2 -6 5 3 6 19 1 17 4 49 6
73 4 46 -1 54 -12 20z"/>
<path d="M1137 5229 c-10 -6 -27 -25 -38 -42 -15 -26 -19 -28 -19 -12 -1 20
-1 20 -15 1 -12 -16 -12 -22 -2 -29 7 -5 4 -6 -10 -2 -21 6 -23 3 -23 -29 0
-28 4 -36 18 -36 15 0 15 -2 2 -11 -12 -9 -11 -9 5 -4 11 5 34 10 50 12 39 6
76 24 69 35 -3 4 2 8 10 8 11 0 9 6 -8 25 -20 21 -22 31 -16 60 8 37 5 40 -23
24z m-58 -123 c7 -8 8 -17 3 -20 -5 -3 -16 4 -25 15 -13 15 -14 19 -3 19 7 0
19 -6 25 -14z"/>
<path d="M3578 5203 c7 -3 16 -2 19 1 4 3 -2 6 -13 5 -11 0 -14 -3 -6 -6z"/>
<path d="M1210 5190 c0 -5 5 -10 11 -10 5 0 7 5 4 10 -3 6 -8 10 -11 10 -2 0
-4 -4 -4 -10z"/>
<path d="M880 5178 c0 -4 4 -8 9 -8 6 0 12 4 15 8 3 5 -1 9 -9 9 -8 0 -15 -4
-15 -9z"/>
<path d="M840 5160 c0 -5 5 -10 10 -10 6 0 10 5 10 10 0 6 -4 10 -10 10 -5 0
-10 -4 -10 -10z"/>
<path d="M816 5152 c-3 -6 -1 -14 5 -17 15 -10 25 3 12 16 -7 7 -13 7 -17 1z"/>
<path d="M950 5102 c-8 -10 -31 -25 -50 -34 -19 -9 -50 -30 -68 -46 -30 -27
-32 -31 -17 -46 9 -9 13 -16 8 -16 -4 0 -8 -13 -8 -30 0 -35 -1 -34 30 -14 13
8 27 29 30 46 5 23 9 27 16 17 7 -11 9 -11 9 -1 0 7 5 10 10 7 6 -3 10 2 11
12 0 11 3 13 6 5 2 -6 9 -9 15 -6 6 4 14 1 18 -6 4 -6 7 2 6 19 -1 17 -4 31
-8 31 -10 0 -6 44 5 51 5 4 8 12 6 17 -2 7 -10 4 -19 -6z m-43 -67 c0 -8 -4
-12 -9 -9 -4 3 -8 9 -8 15 0 5 4 9 8 9 5 0 9 -7 9 -15z m-26 -17 c11 -21 11
-22 -4 -9 -10 7 -17 17 -17 22 0 15 9 10 21 -13z m-19 -50 c-12 -22 -12 -22
-7 5 3 15 1 27 -5 27 -5 0 -10 -5 -10 -12 0 -6 -2 -9 -5 -6 -3 3 -2 13 1 22 6
16 8 16 22 2 13 -12 13 -19 4 -38z"/>
<path d="M3880 5100 c0 -5 5 -10 11 -10 5 0 8 -4 4 -9 -3 -5 -1 -12 4 -15 5
-3 11 3 14 13 3 12 -1 22 -10 25 -20 8 -23 8 -23 -4z"/>
<path d="M3030 5053 c1 -18 22 -53 32 -53 16 0 13 40 -3 54 -24 20 -29 20 -29
-1z"/>
<path d="M3850 5008 c1 -34 14 -56 36 -61 14 -2 27 0 30 4 3 5 2 9 -3 9 -4 0
-16 14 -25 30 -17 31 -38 40 -38 18z"/>
<path d="M1083 4945 c-6 -11 -14 -19 -17 -17 -16 7 -26 0 -26 -18 0 -13 6 -20
18 -19 10 0 12 3 5 6 -7 2 -13 9 -13 14 0 4 6 6 13 4 19 -7 39 10 35 31 -4 18
-4 18 -15 -1z"/>
<path d="M3557 4932 c-15 -17 -15 -18 7 -17 14 0 28 4 33 9 5 5 0 6 -11 2 -14
-5 -17 -2 -12 9 7 20 3 19 -17 -3z"/>
<path d="M3040 4924 c0 -11 -3 -28 -6 -40 -4 -14 -1 -21 10 -21 8 0 17 11 21
24 3 13 10 21 15 18 6 -3 10 1 10 9 0 9 -4 16 -9 16 -5 0 -16 3 -25 6 -11 4
-16 0 -16 -12z"/>
<path d="M3857 4853 c-8 -46 -4 -50 22 -22 26 29 28 59 2 59 -13 0 -20 -10
-24 -37z"/>
<path d="M952 4867 c-12 -15 -21 -77 -12 -77 11 0 39 79 30 85 -4 3 -12 -1
-18 -8z"/>
<path d="M1029 4852 l-20 -24 23 8 c20 6 21 5 9 -9 -7 -9 -11 -22 -8 -29 3 -7
6 -4 7 7 1 20 1 20 15 0 14 -18 17 -18 31 -3 18 18 11 38 -12 38 -8 0 -14 5
-14 10 0 6 7 10 15 10 8 0 15 4 15 9 0 18 -40 7 -61 -17z m61 -32 c0 -5 -5
-10 -11 -10 -5 0 -7 5 -4 10 3 6 8 10 11 10 2 0 4 -4 4 -10z"/>
<path d="M3095 4840 c-4 -6 -11 -7 -17 -4 -6 4 -8 2 -4 -4 3 -6 2 -13 -3 -17
-12 -7 -8 -81 7 -115 9 -22 11 -23 17 -7 4 10 3 23 -3 29 -8 8 -8 17 0 32 11
20 21 96 13 96 -2 0 -7 -5 -10 -10z"/>
<path d="M860 4825 c-7 -8 -19 -15 -26 -15 -8 0 -14 -3 -15 -7 0 -5 -2 -18 -3
-30 -2 -13 1 -23 6 -23 4 0 8 -5 8 -11 0 -5 -4 -8 -9 -4 -6 3 -9 -12 -8 -35 1
-35 4 -39 22 -34 29 9 29 8 32 82 2 37 5 73 8 80 6 16 0 15 -15 -3z m-6 -90
c-4 -8 -8 -15 -10 -15 -2 0 -4 7 -4 15 0 8 4 15 10 15 5 0 7 -7 4 -15z"/>
<path d="M3918 4803 c-9 -2 -20 -17 -23 -33 -4 -17 -11 -32 -16 -35 -16 -10
-10 -35 9 -36 16 0 16 -1 -1 -7 -16 -7 -16 -8 2 -24 18 -16 20 -16 20 0 0 23
5 44 15 61 7 10 18 87 12 80 -1 -1 -9 -3 -18 -6z"/>
<path d="M882 4780 c0 -14 2 -19 5 -12 2 6 2 18 0 25 -3 6 -5 1 -5 -13z"/>
<path d="M956 4785 c-9 -26 -7 -32 5 -12 6 10 9 21 6 23 -2 3 -7 -2 -11 -11z"/>
<path d="M1073 4778 c-13 -6 -23 -15 -23 -20 0 -5 11 -1 25 8 37 24 35 30 -2
12z"/>
<path d="M947 4735 c-4 -8 -2 -17 2 -20 5 -2 11 4 14 15 6 23 -8 27 -16 5z"/>
<path d="M2710 4670 c-36 -10 -89 -25 -119 -34 -30 -8 -66 -13 -80 -10 -27 5
-121 -38 -243 -111 -32 -18 -58 -30 -58 -25 0 5 -15 -4 -32 -21 -18 -16 -40
-29 -49 -29 -9 0 -27 -11 -40 -25 -13 -13 -30 -25 -38 -25 -25 0 -81 -49 -75
-65 4 -10 0 -15 -10 -15 -13 0 -15 -4 -6 -19 12 -24 5 -46 -28 -86 -14 -16
-31 -43 -39 -60 -7 -16 -17 -37 -22 -45 -22 -36 -51 -112 -51 -132 0 -13 -6
-34 -13 -48 -7 -14 -11 -47 -9 -75 6 -110 2 -201 -10 -220 -10 -17 -1 -118 14
-155 8 -19 13 -41 10 -49 -3 -8 0 -11 7 -7 6 4 11 3 11 -3 0 -20 -18 -20 -35
-1 -35 39 -59 15 -44 -42 4 -15 10 -57 14 -93 7 -66 15 -78 20 -30 8 67 18
105 31 116 11 9 14 8 14 -4 0 -9 23 -40 50 -68 28 -29 48 -55 45 -58 -4 -3
-10 0 -14 8 -6 10 -15 7 -36 -12 -26 -22 -28 -47 -4 -47 6 0 7 5 3 12 -4 6 -3
8 3 5 6 -4 8 -18 5 -32 -2 -15 0 -25 7 -25 19 0 12 -16 -11 -28 -14 -6 -17
-11 -8 -11 28 -1 63 35 57 58 -3 11 -1 21 4 21 5 0 9 -4 9 -9 0 -4 10 -6 23
-4 20 4 24 11 26 51 8 139 30 257 52 285 32 39 34 42 37 65 2 12 -1 22 -7 22
-7 0 -7 8 -2 23 6 14 5 30 -1 41 -5 9 -7 29 -4 43 5 18 3 23 -5 17 -8 -4 -9
-3 -5 4 10 16 13 92 4 92 -4 0 -3 11 2 24 6 17 5 26 -3 30 -9 3 -9 5 0 5 9 1
10 8 4 24 -8 21 9 53 23 40 3 -3 11 6 17 21 7 14 18 26 26 26 7 0 13 6 13 13
0 8 4 7 10 -3 8 -13 10 -12 10 3 0 24 43 38 91 31 25 -4 44 -2 54 6 13 11 14
10 10 -1 -4 -11 8 -14 57 -14 65 -1 88 9 81 35 -4 12 -3 12 5 1 7 -10 14 -10
29 -3 23 13 63 12 80 -1 7 -5 17 -6 23 -2 5 3 10 2 10 -3 0 -6 12 -13 27 -17
15 -3 39 -15 54 -26 15 -10 34 -19 43 -19 9 0 16 -6 17 -12 0 -7 4 -4 9 7 7
17 9 17 9 3 1 -12 9 -18 25 -18 14 0 36 -4 50 -10 19 -7 29 -6 40 5 15 16 71
21 62 6 -7 -10 41 -5 76 8 20 8 28 7 32 -5 8 -22 25 -17 19 6 -3 12 0 20 6 20
7 0 10 -4 7 -9 -3 -5 2 -12 11 -16 10 -3 19 -1 21 4 2 6 8 9 13 5 5 -3 9 -1 9
4 0 5 7 9 15 9 9 0 14 -6 11 -14 -7 -16 6 -17 23 0 11 10 13 9 8 -5 -7 -21 -3
-22 24 -8 13 7 19 7 19 0 0 -15 16 -12 34 6 9 8 22 13 29 11 9 -4 9 -6 0 -6
-17 -1 -16 -19 1 -37 11 -11 16 -11 20 -1 5 9 7 9 12 0 3 -7 15 -13 27 -13 43
0 59 -29 62 -108 1 -24 7 -47 14 -52 10 -5 10 -13 2 -27 -5 -11 -7 -23 -4 -27
11 -11 12 -36 2 -36 -8 0 -12 13 -11 30 0 3 -8 6 -18 6 -11 0 -16 -5 -12 -14
3 -8 -1 -18 -8 -22 -15 -9 -5 -30 15 -30 13 0 29 -29 20 -38 -3 -3 -5 0 -5 6
0 7 -11 12 -25 12 -19 0 -25 5 -23 16 2 10 -3 19 -9 21 -20 7 -15 -15 6 -34
41 -37 52 -44 61 -38 5 3 7 0 4 -8 -3 -8 2 -17 10 -20 9 -4 13 -13 10 -22 -4
-10 0 -15 10 -15 9 0 16 -4 16 -10 0 -5 5 -10 11 -10 8 0 9 4 0 13 -6 8 -8 17
-4 21 4 4 -1 4 -11 0 -13 -5 -17 -4 -12 4 3 6 2 13 -3 17 -5 3 -10 13 -10 23
0 9 -3 29 -7 45 -4 18 -2 27 5 27 7 0 10 -4 6 -9 -3 -5 -1 -12 4 -16 6 -3 8
-12 4 -20 -3 -8 -1 -15 5 -15 6 0 13 6 15 13 3 6 6 1 6 -12 1 -24 1 -24 17 -5
15 18 15 18 11 -8 -2 -15 0 -25 4 -22 5 3 9 -2 9 -11 0 -10 -5 -14 -12 -10 -7
4 -5 0 5 -8 9 -8 17 -24 17 -36 0 -11 4 -21 10 -21 5 0 9 -3 8 -7 -1 -5 3 -18
10 -31 7 -12 10 -27 7 -32 -3 -6 0 -10 7 -10 10 0 10 -2 -1 -9 -8 -5 -9 -10
-3 -12 6 -2 12 -20 15 -39 2 -19 9 -48 17 -65 7 -18 13 -82 15 -158 2 -111 0
-127 -13 -122 -12 4 -13 3 -2 -9 9 -12 9 -22 1 -43 l-11 -28 5 28 c5 23 2 30
-14 34 -12 3 -18 9 -15 14 3 5 0 9 -6 9 -6 0 -13 -6 -16 -14 -3 -9 -12 -12
-22 -9 -11 5 -14 2 -9 -10 3 -9 2 -17 -3 -17 -6 0 -10 7 -10 15 0 8 -4 15 -9
15 -5 0 -11 -7 -15 -15 -3 -8 -1 -15 4 -15 6 0 10 -5 10 -11 0 -6 -6 -9 -13
-6 -7 3 -19 -4 -25 -14 -9 -14 -9 -19 -1 -19 8 0 8 -5 -1 -15 -8 -10 -17 -12
-24 -6 -8 6 -12 0 -13 -20 -4 -54 -6 -60 -21 -54 -9 3 -19 0 -24 -7 -5 -9 -8
-5 -8 11 0 24 -1 24 -14 5 -17 -22 -63 -26 -71 -5 -5 11 -8 11 -19 -5 -14 -18
-15 -18 -34 -1 -11 10 -23 17 -28 16 -18 -3 -37 1 -31 7 3 3 -4 15 -15 26 -15
15 -17 22 -7 34 9 12 9 13 -2 9 -8 -3 -23 2 -34 11 -11 8 -14 12 -6 8 9 -5 12
-3 7 4 -4 7 -14 12 -22 12 -8 0 -14 7 -14 15 0 9 -6 12 -17 8 -11 -4 -14 -3
-9 5 5 8 -5 10 -33 7 -23 -2 -43 1 -46 6 -4 5 -10 9 -16 9 -5 0 -4 -9 3 -19 9
-15 9 -26 1 -44 -14 -30 -6 -70 12 -63 8 3 11 -2 8 -15 -3 -10 -13 -19 -23
-19 -10 0 -20 -6 -23 -13 -3 -9 -20 -13 -45 -12 -30 1 -39 -2 -35 -13 4 -9 0
-12 -13 -10 -11 2 -21 6 -24 10 -10 12 -60 21 -60 10 0 -6 -8 -11 -17 -10 -26
1 -94 -10 -100 -16 -2 -2 0 -13 5 -23 7 -12 7 -25 1 -34 -5 -7 -9 -9 -9 -4 -1
6 -5 0 -10 -12 -10 -23 -40 -32 -40 -12 0 7 -10 5 -25 -5 -23 -15 -24 -15 -18
1 4 9 2 14 -4 10 -5 -3 -9 7 -8 26 1 25 10 37 47 62 35 23 48 38 53 65 4 19
11 38 17 41 6 4 9 12 7 18 -3 7 -12 6 -31 -3 -19 -10 -28 -11 -31 -3 -2 6 -13
1 -25 -11 -13 -13 -27 -20 -32 -17 -6 4 -10 -1 -10 -9 0 -9 -4 -16 -10 -16 -5
0 -6 -7 -3 -17 4 -9 2 -14 -3 -11 -10 7 -35 -16 -28 -26 2 -3 -1 -2 -7 3 -14
12 -43 -14 -34 -29 3 -5 -5 -14 -19 -19 -13 -6 -27 -19 -31 -30 -3 -12 -11
-21 -16 -21 -13 0 -11 18 4 23 9 4 9 6 -1 6 -7 1 -15 -6 -18 -14 -4 -8 -12
-15 -19 -15 -7 0 -16 -6 -18 -12 -4 -10 -6 -10 -6 0 -1 6 -9 12 -18 12 -10 0
-14 -4 -8 -8 14 -10 17 -32 5 -32 -5 0 -21 11 -35 25 -14 15 -25 20 -25 13 0
-7 -6 -2 -13 12 -8 14 -19 24 -26 22 -9 -2 -9 3 -1 19 16 29 6 35 -19 10 -19
-19 -21 -19 -21 -3 0 14 -2 15 -10 2 -8 -12 -10 -11 -8 5 2 11 0 20 -3 20 -4
0 -17 11 -29 25 -16 18 -20 20 -16 7 4 -11 2 -16 -5 -12 -5 4 -7 15 -4 26 4
10 3 19 -2 19 -4 0 -17 18 -27 40 -10 22 -22 38 -25 36 -3 -2 -7 12 -9 32 -1
20 -4 45 -7 56 -15 72 -25 100 -35 106 -8 5 -9 10 -2 14 6 3 9 14 7 24 -2 9
-4 19 -4 22 -1 3 -6 -2 -11 -10 -13 -20 -13 -70 0 -70 5 0 7 -6 4 -13 -3 -8 0
-26 5 -40 6 -15 7 -27 3 -27 -10 0 -5 -60 11 -145 15 -77 8 -94 -36 -99 -13
-1 -29 -6 -36 -11 -10 -6 -12 -4 -6 5 6 10 4 12 -8 7 -10 -4 -17 -1 -17 5 0 6
-3 9 -6 5 -3 -3 -17 7 -31 24 -15 18 -32 28 -42 25 -9 -3 -95 -7 -191 -10 -96
-3 -214 -8 -261 -12 -60 -4 -93 -3 -109 6 -21 11 -22 11 -15 -6 5 -11 10 -46
11 -79 1 -33 3 -63 3 -67 1 -4 14 -3 30 2 66 19 124 -18 87 -55 -16 -17 -41
-21 -31 -5 8 14 -8 13 -22 -1 -8 -8 -8 -20 -3 -35 5 -13 7 -31 3 -40 -3 -9 0
-20 8 -25 18 -11 32 -11 24 0 -3 5 -1 12 5 16 5 3 10 1 10 -5 0 -6 5 -8 13 -4
7 5 6 0 -3 -11 -9 -10 -11 -20 -5 -22 14 -4 9 -191 -6 -209 -9 -11 -9 -14 1
-14 10 0 10 -4 -1 -16 -10 -13 -10 -17 2 -25 13 -8 6 -13 -13 -10 -13 2 -9
-13 8 -37 18 -26 13 -38 -11 -28 -11 4 -14 12 -10 26 8 24 -4 26 -31 5 -16
-12 -16 -14 -3 -15 22 0 32 -37 12 -44 -11 -5 -12 -8 -1 -20 15 -16 40 -2 32
18 -3 7 5 12 18 13 15 2 18 -1 10 -6 -7 -4 -15 -24 -19 -45 -4 -28 -3 -35 8
-31 10 4 14 -4 15 -25 1 -17 -1 -28 -4 -25 -3 3 -15 -3 -26 -12 -20 -17 -20
-17 -7 0 10 13 10 17 1 17 -7 0 -10 6 -7 13 4 10 -4 13 -28 13 -22 -1 -31 -5
-28 -14 4 -8 0 -10 -11 -6 -9 3 -16 9 -17 13 -3 24 -7 50 -12 73 -3 15 -2 30
2 32 4 3 8 24 9 48 1 24 5 55 8 71 4 22 2 27 -13 27 -15 0 -16 2 -3 11 11 8
12 12 3 16 -9 3 -10 10 -3 24 8 15 7 19 -4 19 -21 0 -49 -46 -43 -70 3 -10 0
-21 -7 -23 -8 -3 -8 -9 0 -23 9 -15 8 -22 -5 -32 -12 -10 -13 -15 -3 -18 6 -3
12 -21 12 -40 0 -21 -4 -33 -10 -29 -5 3 -10 2 -10 -4 0 -5 5 -13 10 -16 6 -4
4 -12 -5 -21 -8 -9 -13 -20 -10 -25 4 -5 1 -9 -4 -9 -6 0 -11 -5 -11 -11 0 -5
6 -7 13 -3 8 5 8 3 -2 -9 -7 -9 -11 -26 -8 -37 3 -11 1 -23 -4 -26 -5 -3 -9 5
-9 17 0 21 -1 21 -132 14 -73 -4 -147 -7 -165 -8 -28 0 -48 -18 -43 -37 5 -15
-153 -20 -197 -5 -7 3 -13 1 -13 -3 0 -4 -67 -6 -150 -4 -86 2 -150 -1 -150
-6 0 -10 88 -92 99 -92 4 0 20 -22 34 -49 22 -40 32 -49 52 -47 14 0 25 5 25
10 0 5 6 3 14 -3 12 -10 18 0 37 60 13 40 25 67 27 61 2 -7 10 -12 17 -12 7 0
12 -8 11 -18 0 -9 4 -16 11 -15 8 2 10 -4 6 -14 -4 -11 -3 -14 5 -9 8 5 12 -2
12 -21 0 -27 20 -72 20 -46 0 7 10 12 22 10 17 -2 23 5 29 33 4 19 12 36 18
38 5 2 8 9 5 17 -3 7 -1 16 5 20 6 3 11 1 11 -6 0 -10 3 -10 12 -1 17 17 31
15 25 -3 -4 -8 -2 -17 3 -20 4 -3 7 -16 6 -29 -2 -14 4 -28 16 -35 14 -9 18
-8 18 4 0 8 -4 15 -10 15 -5 0 -10 4 -10 10 0 5 7 7 15 4 10 -4 15 0 15 12 0
11 7 28 15 38 8 10 12 23 9 27 -3 5 0 9 5 9 6 0 11 6 11 13 0 8 9 13 22 12 14
-1 23 -8 22 -17 -1 -10 5 -14 16 -11 9 2 22 -2 28 -10 10 -12 8 -13 -11 -10
-19 4 -23 0 -24 -24 -2 -45 6 -73 20 -67 7 2 14 16 15 31 1 14 5 29 8 32 4 3
5 -6 2 -20 -3 -15 1 -34 8 -43 10 -14 12 -9 11 35 0 43 4 56 22 71 13 10 18
18 12 18 -8 0 -9 5 -2 19 13 24 40 34 56 21 6 -5 14 -7 17 -5 3 3 4 -5 3 -19
-2 -17 1 -23 10 -20 7 3 11 14 8 25 -6 23 12 26 21 3 3 -8 11 -12 17 -8 8 4 7
9 -2 15 -11 7 -11 9 2 9 11 0 16 -9 16 -29 0 -22 -4 -27 -18 -24 -10 3 -28 -2
-41 -12 -23 -16 -23 -16 15 -10 29 6 37 4 37 -8 0 -10 -8 -13 -27 -10 -27 3
-27 3 -4 -7 19 -8 22 -15 17 -36 -5 -17 -3 -23 4 -19 13 8 13 -1 0 -26 -8 -15
-7 -19 4 -19 10 0 13 6 10 15 -4 8 -1 15 5 15 6 0 10 -13 9 -30 -2 -33 -8 -36
-26 -18 -18 18 -14 -3 5 -24 9 -10 12 -18 6 -18 -6 0 -10 -17 -9 -37 1 -32 4
-38 21 -36 11 1 15 0 8 -3 -7 -3 -10 -13 -7 -22 5 -15 4 -15 -9 1 -17 21 -24
22 -24 2 0 -8 4 -12 8 -9 4 2 8 -8 8 -23 0 -16 2 -37 4 -48 2 -11 1 -29 -4
-40 -6 -16 -8 -17 -8 -3 -1 9 -5 19 -9 22 -10 6 -9 -25 2 -42 4 -7 2 -12 -6
-12 -9 0 -9 -3 2 -10 8 -5 10 -10 4 -10 -5 0 -11 -18 -12 -40 -2 -23 2 -40 8
-40 5 0 10 9 10 20 0 11 5 20 11 20 5 0 7 5 4 10 -3 6 -1 10 4 10 6 0 11 -7
11 -15 0 -8 -6 -15 -12 -15 -10 0 -10 -2 0 -9 11 -6 10 -11 -3 -25 -9 -9 -22
-16 -28 -17 -7 0 -3 -4 8 -9 11 -5 14 -9 7 -9 -9 -1 -10 -6 -3 -19 7 -13 6
-19 -2 -20 -34 -2 -105 -36 -126 -60 -19 -21 -35 -28 -70 -30 -77 -5 -82 -6
-77 -18 3 -7 0 -15 -7 -18 -7 -2 -4 -5 6 -5 9 -1 17 -9 17 -18 0 -14 -2 -15
-9 -4 -5 7 -13 11 -19 7 -5 -3 -12 1 -15 8 -3 8 -1 17 6 20 9 3 8 7 -3 15 -10
7 -18 6 -28 -1 -9 -8 -16 -8 -23 -1 -6 6 -26 7 -48 3 -20 -4 -46 -3 -57 0 -10
4 -27 3 -38 -2 -13 -7 -16 -7 -12 1 10 15 -29 50 -45 40 -7 -4 -17 -5 -21 -3
-4 3 -8 0 -8 -6 0 -6 -4 -9 -8 -6 -4 2 -9 42 -11 88 -3 108 -22 199 -69 334
-51 144 -92 223 -133 254 -19 14 -37 24 -41 23 -4 -2 -9 6 -13 16 -8 26 -55
74 -90 91 -16 8 -32 17 -35 20 -17 19 -110 70 -126 70 -11 0 -25 5 -32 12 -9
9 -12 -215 -12 -1010 l0 -1022 2935 0 2935 0 0 455 c0 367 -2 453 -13 449 -13
-5 -41 17 -182 141 -44 39 -89 77 -100 86 -11 8 -30 26 -43 40 l-22 25 40 -3
c34 -2 40 0 41 17 1 11 2 25 3 31 0 6 16 17 33 24 24 10 32 11 30 2 -1 -7 10
-11 28 -11 17 1 65 2 108 3 69 1 78 3 75 18 -2 13 -16 20 -46 24 -23 3 -48 11
-54 17 -18 18 -158 16 -158 -2 0 -8 6 -17 13 -19 7 -3 5 -6 -5 -6 -12 -1 -18
6 -18 19 0 24 -15 26 -24 4 -4 -10 -14 -14 -26 -11 -12 3 -27 -2 -36 -11 -15
-15 -16 -14 -10 4 5 17 1 20 -34 20 -31 1 -37 -2 -29 -12 13 -16 19 -63 9 -69
-4 -3 -10 2 -14 10 -3 8 -12 15 -21 15 -8 0 -15 5 -15 10 0 6 -4 10 -9 10 -18
0 -135 72 -174 107 -20 18 -43 33 -51 33 -8 0 -27 11 -43 24 -15 13 -39 27
-51 31 -13 4 -33 16 -43 26 -13 13 -27 18 -39 14 -10 -3 -35 3 -56 14 -20 11
-41 18 -46 15 -4 -3 -8 2 -8 10 0 8 -12 26 -26 39 -22 20 -37 24 -100 26 -41
1 -74 -2 -74 -7 0 -5 -14 -15 -30 -22 -28 -12 -76 -10 -135 4 -97 24 -113 31
-152 70 -38 38 -45 41 -100 42 -35 0 -87 11 -132 27 -68 24 -115 48 -64 33 22
-7 26 5 10 31 -4 7 0 16 9 21 15 8 16 16 7 51 -8 29 -8 41 0 41 7 0 7 4 -1 12
-15 15 -15 51 0 66 7 7 8 12 2 12 -9 0 -11 32 -4 50 2 3 4 48 5 100 4 146 4
149 23 168 15 15 17 29 12 90 -5 76 3 114 34 155 17 23 22 24 39 12 14 -10 26
-11 47 -3 31 10 61 38 41 38 -6 0 -11 -4 -11 -9 0 -13 -58 -19 -69 -8 -6 6 -5
17 2 31 16 27 27 36 52 36 11 0 37 12 58 26 43 29 94 39 114 23 16 -14 45 -4
42 13 -3 27 1 39 14 35 6 -2 27 4 45 15 17 11 32 17 32 15 0 -3 13 -2 30 3 18
5 32 5 36 -1 3 -5 9 -7 14 -4 5 3 132 8 282 11 150 3 299 6 331 7 47 2 61 -1
68 -15 5 -10 16 -18 23 -18 15 0 29 27 21 40 -3 4 4 6 15 3 11 -3 20 -9 20
-13 0 -9 41 -6 104 5 28 6 41 4 47 -6 7 -11 11 -12 17 -1 5 8 27 13 53 13 24
0 53 0 64 0 39 2 80 -5 87 -15 5 -7 11 -7 20 2 14 14 42 17 33 3 -3 -6 4 -9
15 -8 18 1 20 8 20 62 l0 60 -247 -2 c-286 -3 -704 -12 -878 -19 -140 -5 -125
-5 -195 -4 -48 2 -384 -6 -702 -14 -101 -3 -108 -2 -108 16 0 10 -11 30 -24
43 -13 13 -22 26 -19 29 3 3 1 19 -5 35 -9 26 -8 31 9 36 10 4 19 11 19 16 0
13 -13 11 -30 -3 -8 -7 -6 -3 5 10 16 20 20 21 28 7 6 -11 3 -22 -8 -36 -16
-17 -16 -19 -2 -25 21 -8 45 16 49 49 2 15 7 29 11 33 13 13 7 22 -12 17 -13
-3 -17 -11 -14 -26 4 -18 3 -19 -6 -7 -14 20 -14 47 2 53 9 4 9 8 -2 15 -15
11 2 27 19 17 17 -11 11 37 -7 58 -13 14 -14 21 -6 24 8 3 9 12 4 26 -4 12 -6
28 -4 35 3 6 1 12 -4 12 -5 0 -9 8 -9 18 0 9 -4 27 -8 40 -4 13 -3 22 2 22 6
0 13 -17 17 -38 7 -44 21 -70 31 -59 12 12 14 64 8 155 l-6 82 -33 -3 c-28 -4
-32 -1 -29 20 1 12 -1 25 -6 28 -4 3 -6 14 -3 25 3 11 9 18 13 15 4 -3 2 16
-6 42 -8 25 -14 57 -14 70 0 12 -3 23 -8 23 -4 0 -7 19 -6 43 0 23 -2 54 -7
69 -4 16 -3 30 2 34 5 3 6 10 3 16 -4 6 -8 38 -10 70 -2 33 -7 65 -12 71 -5 7
-12 20 -15 30 -5 13 -2 17 11 15 13 -2 16 3 14 27 -2 17 -10 37 -18 46 -8 8
-14 19 -14 23 0 4 -13 27 -30 51 -16 24 -30 48 -30 54 0 6 -5 11 -11 11 -7 0
-9 9 -6 21 4 13 -2 26 -15 37 -11 9 -26 23 -32 30 -40 49 -60 63 -112 78 -33
10 -66 17 -74 16 -12 -2 -12 -1 -2 6 17 11 -1 27 -42 38 -15 3 -55 20 -88 36
-33 16 -73 30 -89 32 -17 2 -40 13 -53 25 -14 13 -35 21 -57 21 -52 0 -189 23
-189 32 0 12 -29 9 -100 -12z m-63 -356 c-3 -3 -12 -4 -19 -1 -8 3 -5 6 6 6
11 1 17 -2 13 -5z m120 -130 c-3 -3 -12 -4 -19 -1 -8 3 -5 6 6 6 11 1 17 -2
13 -5z m588 -244 c3 -5 1 -10 -4 -10 -6 0 -11 5 -11 10 0 6 2 10 4 10 3 0 8
-4 11 -10z m58 -273 c3 -8 -1 -14 -8 -14 -7 0 -11 6 -8 14 3 7 6 13 8 13 2 0
5 -6 8 -13z m-373 -782 c0 -8 4 -15 9 -15 5 0 11 -8 13 -17 5 -21 -32 -57 -44
-45 -15 15 -19 63 -7 78 15 18 29 18 29 -1z m-70 -11 c0 -8 -4 -12 -10 -9 -5
3 -10 10 -10 16 0 5 5 9 10 9 6 0 10 -7 10 -16z m176 -109 c1 -15 -3 -25 -12
-25 -17 0 -17 5 -4 31 14 24 15 24 16 -6z m128 10 c3 -8 1 -15 -4 -15 -6 0
-10 7 -10 15 0 8 2 15 4 15 2 0 6 -7 10 -15z m-1260 -105 c3 -3 7 -26 10 -50
3 -25 12 -70 20 -100 8 -30 13 -56 11 -59 -3 -2 0 -10 5 -16 8 -9 3 -11 -17
-9 l-28 4 28 -11 c15 -6 27 -17 27 -25 0 -8 4 -14 8 -14 9 0 43 -72 37 -78 -3
-3 -13 1 -22 9 -16 13 -17 12 -4 -3 7 -10 20 -18 27 -18 8 0 15 -4 15 -10 1
-5 3 -14 4 -20 1 -5 3 -14 4 -19 0 -5 10 -13 21 -16 11 -3 20 -12 20 -20 0 -7
7 -16 16 -19 8 -3 12 -11 9 -17 -4 -6 6 -24 21 -40 16 -17 29 -35 29 -42 2
-28 25 -66 44 -72 12 -3 21 -11 21 -16 0 -6 -5 -7 -11 -4 -6 4 -5 -2 2 -13 7
-11 24 -26 37 -32 16 -7 22 -16 18 -26 -8 -21 4 -40 14 -24 6 9 13 7 27 -7 11
-11 18 -24 16 -30 -2 -6 8 -13 22 -17 29 -7 33 -22 8 -30 -10 -3 -6 -4 9 -2
18 2 37 -6 60 -26 36 -31 45 -38 73 -54 22 -12 32 -35 13 -31 -7 2 -10 2 -5 0
4 -3 5 -9 1 -14 -9 -15 8 -10 28 8 16 14 18 14 18 0 0 -8 -6 -17 -12 -19 -9
-3 -7 -10 7 -24 15 -15 18 -16 13 -3 -4 11 1 20 17 27 19 9 22 8 21 -6 0 -10
6 -17 16 -17 9 0 20 -4 25 -9 4 -5 3 -6 -4 -2 -8 4 -13 1 -13 -8 0 -8 -8 -20
-17 -25 -15 -9 -14 -10 6 -7 14 1 27 8 29 14 2 6 10 8 18 5 8 -3 21 0 30 7 12
11 17 11 27 0 10 -10 9 -12 -3 -8 -9 3 -27 -3 -40 -14 -20 -16 -21 -21 -9 -29
7 -5 10 -9 4 -9 -5 -1 4 -7 20 -14 20 -9 36 -10 49 -4 14 8 22 5 35 -8 9 -11
9 -13 1 -6 -20 17 -35 15 -20 -3 7 -9 10 -18 6 -22 -3 -3 -6 -1 -6 7 0 10 -3
10 -15 0 -8 -7 -12 -16 -9 -21 8 -14 -26 -58 -42 -52 -10 3 -14 -2 -14 -18 0
-19 2 -21 10 -9 8 12 10 10 10 -8 0 -13 4 -21 9 -18 14 9 42 -5 35 -16 -4 -6
-10 -5 -16 3 -6 10 -7 7 -3 -8 3 -13 2 -23 -3 -23 -5 0 -7 -12 -4 -26 6 -31
-15 -49 -37 -31 -11 10 -13 9 -9 -3 6 -19 49 -15 64 5 6 8 13 12 16 10 3 -3
11 1 18 10 11 13 10 14 -2 10 -9 -4 -18 1 -22 11 -5 13 -2 15 15 11 23 -6 49
1 49 13 0 4 -12 5 -27 3 -20 -3 -24 -2 -14 5 13 10 6 37 -7 28 -10 -6 -47 22
-39 30 3 3 11 2 19 -2 15 -10 47 -9 70 0 24 11 53 3 52 -14 -1 -9 9 -16 22
-16 13 -1 22 2 19 6 -8 12 6 40 19 40 7 0 21 8 32 19 17 15 23 16 37 6 15 -11
16 -13 2 -19 -8 -3 -15 -15 -15 -26 0 -18 -4 -20 -22 -14 -13 4 -26 12 -31 18
-4 6 -5 -2 -2 -19 5 -34 -13 -51 -30 -28 -10 13 -16 13 -35 3 -18 -10 -24 -9
-31 1 -4 7 -5 17 -3 21 3 4 -2 8 -10 8 -22 0 -28 -16 -11 -30 8 -7 15 -18 15
-26 0 -7 4 -16 10 -19 5 -3 7 0 4 9 -7 19 29 30 54 17 11 -6 22 -7 26 -4 3 3
6 4 6 0 0 -3 -10 -16 -22 -28 l-23 -21 23 11 c12 7 26 9 31 7 14 -9 21 20 8
33 -8 8 -8 11 0 11 6 0 19 -7 27 -16 15 -14 16 -14 16 0 0 9 -8 16 -17 16 -16
1 -16 2 1 15 28 21 35 19 31 -10 -1 -14 2 -28 8 -32 6 -3 7 -1 3 5 -4 7 -2 12
3 12 6 0 11 -6 11 -14 0 -9 7 -13 20 -11 21 4 27 -9 10 -20 -5 -3 -15 -15 -21
-27 -6 -11 -7 -18 -1 -14 5 3 15 -1 22 -9 10 -12 9 -15 -6 -16 -18 -1 -18 -2
-1 -6 11 -3 27 5 40 19 20 21 27 23 57 15 l35 -9 -24 -19 c-13 -10 -30 -19
-37 -19 -8 0 -26 -7 -39 -16 -13 -9 -29 -13 -35 -9 -5 3 -10 2 -10 -3 0 -12
-64 -38 -110 -45 -166 -25 -198 -28 -239 -21 -25 4 -57 6 -71 5 -30 -2 -186
45 -195 59 -3 6 -14 10 -23 10 -34 0 -187 120 -255 200 -53 63 -117 186 -124
241 -4 28 0 45 16 67 26 37 27 51 3 29 -10 -10 -21 -15 -24 -12 -2 3 -10 -5
-17 -18 -9 -17 -27 -26 -61 -33 -46 -10 -49 -9 -59 13 -6 13 -7 23 -2 23 5 0
12 -7 15 -16 9 -24 26 -6 24 27 -1 17 -8 29 -16 29 -8 0 -12 -6 -9 -14 3 -8
-2 -16 -15 -19 -15 -4 -18 -11 -13 -26 6 -19 4 -20 -24 -10 -17 6 -29 14 -26
19 5 8 -38 30 -60 30 -8 0 -15 5 -15 11 0 5 -4 7 -10 4 -5 -3 -10 -1 -10 4 0
6 -5 11 -10 11 -6 0 -8 -10 -5 -23 5 -18 1 -26 -20 -35 -33 -15 -32 -15 -39 4
-6 15 -4 15 11 3 15 -12 16 -12 10 3 -4 11 -2 17 5 15 6 -1 13 4 15 11 3 8 -1
10 -12 5 -14 -5 -16 -2 -11 15 4 12 2 23 -5 28 -9 5 -10 2 -6 -9 4 -12 1 -17
-11 -17 -10 0 -24 -6 -31 -12 -11 -11 -13 -10 -8 4 3 10 1 20 -5 24 -7 4 -8 3
-4 -4 5 -8 -2 -12 -18 -12 -18 0 -26 6 -27 18 0 10 -3 12 -6 5 -2 -7 -9 -13
-15 -13 -6 0 -8 6 -5 13 3 9 -2 13 -16 12 -13 -2 -21 -8 -19 -16 1 -8 -7 -3
-18 11 -11 14 -26 32 -32 40 -7 8 -12 16 -11 19 5 13 29 18 50 10 16 -6 23 -5
24 4 0 9 2 9 6 -1 2 -6 8 -10 13 -7 4 3 24 7 44 10 30 5 36 3 36 -11 0 -13 3
-15 11 -7 8 8 8 17 0 32 -7 12 -8 21 -2 21 5 0 12 -11 15 -25 4 -14 11 -23 16
-20 6 4 7 11 4 17 -4 7 -2 8 5 4 6 -4 9 -12 6 -17 -4 -5 -1 -9 5 -9 6 0 13 7
16 15 7 17 24 20 24 4 0 -6 7 -17 15 -25 8 -9 15 -27 15 -40 0 -15 4 -23 11
-19 6 4 8 14 5 22 -4 11 -2 13 9 10 8 -4 17 -2 20 3 4 6 0 10 -7 10 -8 0 -9 3
-3 8 6 4 8 20 4 37 -4 19 -7 23 -8 10 -1 -13 -4 -16 -9 -8 -4 6 -26 10 -50 9
-42 -2 -59 15 -27 28 8 3 12 12 9 21 -9 21 -24 19 -24 -4 0 -24 -18 -37 -32
-23 -7 7 -19 7 -37 1 -17 -7 -27 -7 -29 0 -2 6 -13 11 -24 11 -14 0 -18 -5
-14 -15 3 -8 1 -15 -4 -15 -13 0 -13 23 0 38 6 6 7 10 4 7 -4 -3 -13 0 -21 6
-9 9 -13 8 -13 0 0 -6 4 -11 10 -11 5 0 7 -7 4 -15 -4 -8 -14 -15 -23 -15 -14
0 -14 2 -1 10 13 8 12 10 -3 10 -10 0 -15 5 -12 10 3 6 2 10 -4 10 -5 0 -12
-6 -15 -12 -3 -7 -3 -2 0 11 4 16 2 21 -5 17 -7 -5 -9 -1 -5 8 8 21 24 20 24
0 0 -13 6 -15 27 -9 16 4 28 7 28 8 0 1 5 11 11 22 12 22 54 34 54 15 0 -8 6
-8 20 0 16 8 24 8 35 -4 8 -8 15 -18 15 -23 0 -5 10 -9 23 -10 12 0 16 1 10 4
-7 3 -13 9 -13 14 0 6 5 7 10 4 6 -3 10 3 10 14 0 27 -34 45 -59 31 -11 -5
-26 -10 -33 -9 -10 0 -10 2 0 6 13 5 16 29 4 37 -4 2 -14 0 -22 -6 -12 -8 -12
-9 3 -4 21 7 23 -10 2 -18 -16 -6 -58 32 -49 45 6 11 -29 -2 -36 -12 -3 -5
-19 -5 -35 -1 -35 10 -41 47 -13 75 15 15 18 15 18 1 0 -8 5 -12 10 -9 6 4 18
1 27 -7 15 -11 16 -11 10 5 -6 15 -4 16 13 7 12 -7 21 -7 25 0 6 10 40 6 87
-12 22 -8 31 -6 49 11 13 12 19 21 13 21 -5 0 -3 4 4 9 11 7 11 9 -1 14 -9 3
-18 -1 -21 -9 -3 -8 0 -14 6 -14 6 0 9 -2 6 -5 -10 -10 -38 7 -31 19 5 8 3 8
-8 0 -23 -17 -55 -14 -69 6 -13 19 -15 18 -33 -8 -17 -25 -18 -25 -12 -4 5 17
1 27 -11 37 -16 11 -21 10 -36 -8 -10 -11 -18 -15 -18 -9 0 7 -5 12 -11 12 -6
0 -19 10 -28 22 -16 20 -17 22 -2 37 18 18 61 23 61 8 0 -5 6 -5 13 0 14 12
67 23 67 14 0 -11 65 -9 72 3 13 19 9 28 -8 22 -10 -4 -18 1 -21 14 -5 17 -7
17 -20 5 -17 -17 -43 -20 -43 -4 0 5 -5 7 -10 4 -16 -10 -40 14 -34 33 3 9 -3
5 -12 -10 -19 -28 -39 -38 -32 -16 3 7 -6 22 -19 34 -28 26 -29 34 -4 34 11 0
23 5 26 10 11 17 27 11 21 -7 -5 -16 -5 -16 6 -3 14 17 94 27 84 11 -4 -5 -2
-12 4 -16 5 -3 10 -1 10 5 0 7 6 10 13 7 7 -3 13 5 13 19 1 13 -3 24 -8 24 -6
0 -5 6 2 15 9 10 9 15 1 15 -6 0 -11 -4 -11 -10 0 -5 -7 -10 -15 -10 -8 0 -15
-4 -15 -8 0 -13 -30 -10 -31 2 0 6 -4 2 -9 -9 -7 -15 -9 -16 -9 -4 -1 23 -51
32 -51 10 -1 -9 -7 -2 -15 14 -7 17 -14 24 -14 16 -1 -15 -13 -9 -13 6 0 4 -4
15 -9 24 -10 20 30 44 60 36 16 -4 21 0 22 16 1 19 2 19 6 4 4 -14 11 -18 29
-14 14 2 27 1 29 -3 3 -5 14 -6 25 -3 11 3 20 1 20 -5 0 -5 11 -9 25 -8 23 1
37 26 15 26 -5 0 -9 6 -7 13 1 6 -4 11 -10 10 -7 -2 -13 1 -13 5 0 4 -9 8 -20
8 -11 0 -20 -4 -20 -8 0 -4 -8 -8 -17 -7 -11 0 -13 3 -5 6 6 2 12 9 12 14 0 6
-9 5 -21 -2 -15 -8 -24 -8 -32 0 -16 16 -37 13 -31 -4 4 -8 1 -15 -5 -15 -6 0
-11 5 -11 10 0 6 -7 10 -15 10 -8 0 -15 5 -15 10 0 6 7 10 16 10 8 0 12 5 9
10 -3 6 3 10 14 10 12 0 21 -5 21 -11 0 -6 9 -4 21 4 21 15 59 12 71 -7 6 -8
8 -8 8 0 0 7 11 14 25 16 25 5 36 -7 13 -14 -8 -3 -6 -7 5 -11 9 -3 16 -2 14
3 -6 25 37 35 147 35 63 0 117 -2 120 -5z m-589 -60 c-11 -5 -14 -9 -6 -9 9
-1 12 -9 9 -26 -3 -14 -2 -25 1 -25 10 0 6 -74 -6 -96 -9 -16 -9 -27 3 -49 11
-22 12 -31 2 -42 -9 -11 -9 -16 3 -24 8 -5 10 -9 4 -9 -11 0 -13 -106 -2 -116
3 -4 2 -15 -3 -25 -7 -11 -7 -27 0 -43 5 -14 5 -28 1 -31 -5 -3 -7 -14 -4 -26
5 -17 2 -20 -13 -17 -17 3 -19 14 -22 101 -1 70 1 97 10 97 9 0 9 3 0 12 -9 9
-9 15 1 27 9 12 9 13 0 7 -7 -4 -13 -2 -13 3 0 6 8 11 17 11 15 0 14 2 -3 15
-10 8 -14 15 -9 15 6 0 11 25 12 56 0 35 6 60 15 66 10 6 8 8 -7 6 -21 -3 -28
26 -11 50 6 8 6 16 0 20 -12 9 -12 45 1 54 6 4 17 7 25 7 10 0 8 -3 -5 -9z
m279 -18 c2 -4 -4 -9 -15 -9 -11 -1 -17 2 -14 8 7 11 22 12 29 1z m-342 -47
c-2 -14 -11 -25 -19 -25 -9 0 -13 6 -10 15 4 8 2 17 -3 20 -4 3 -11 -1 -13 -7
-4 -10 -6 -10 -6 0 -1 13 38 33 50 26 4 -2 4 -15 1 -29z m985 -45 c-1 -11 -7
-20 -13 -20 -7 0 -10 8 -7 20 3 11 9 20 14 20 4 0 7 -9 6 -20z m-812 -29 c-8
-14 -25 -14 -25 0 0 5 5 7 10 4 6 -3 10 -1 10 6 0 7 3 10 6 6 3 -3 3 -10 -1
-16z m1449 5 c-3 -9 6 -12 30 -10 29 3 34 0 29 -13 -5 -13 -3 -14 12 -6 20 11
59 -13 48 -30 -3 -5 -9 -3 -14 4 -6 10 -9 10 -9 2 0 -7 -7 -10 -15 -7 -11 4
-13 2 -10 -9 4 -9 16 -13 36 -11 25 3 27 1 17 -10 -9 -10 -17 -11 -25 -4 -9 7
-13 7 -13 -3 0 -8 -5 -6 -13 6 -10 12 -16 15 -21 6 -5 -8 -13 -8 -27 -1 -13 7
-19 7 -19 0 0 -5 -7 -10 -16 -10 -14 0 -14 3 -4 15 18 21 8 28 -23 16 -18 -7
-27 -7 -31 2 -3 9 -7 8 -14 -2 -5 -7 -15 -10 -21 -7 -6 4 -11 3 -11 -2 0 -6
-8 -8 -19 -5 -10 3 -22 -1 -26 -8 -5 -8 -4 -10 3 -5 7 4 12 2 12 -3 0 -6 -7
-11 -15 -11 -8 0 -15 6 -15 13 0 6 -8 -3 -18 -22 -16 -32 -39 -41 -36 -14 1 8
-5 9 -22 1 -18 -8 -21 -15 -14 -27 5 -10 5 -23 0 -31 -5 -8 -6 -18 -4 -22 3
-4 -5 -8 -18 -9 l-23 -1 24 -7 c14 -4 27 -13 29 -20 3 -8 0 -11 -7 -7 -6 4
-11 3 -11 -3 0 -5 5 -13 10 -16 6 -4 8 -11 4 -16 -3 -5 -10 -6 -16 -3 -7 4 -8
2 -4 -5 10 -16 36 5 36 29 0 22 24 32 39 17 8 -8 11 -8 11 2 0 7 6 11 15 8 8
-4 17 -2 20 3 4 6 17 10 31 10 14 0 22 4 19 10 -3 6 -2 10 3 10 28 0 18 -94
-10 -96 -10 -1 -17 1 -16 5 2 20 -4 22 -22 6 -19 -17 -19 -17 -15 3 5 27 -21
18 -28 -9 -5 -18 -9 -19 -27 -9 -13 7 -20 8 -16 2 3 -5 -6 -9 -19 -9 -25 0
-29 6 -26 40 1 9 -3 17 -8 17 -6 0 -11 -4 -11 -10 0 -5 -5 -10 -11 -10 -5 0
-8 4 -4 9 3 6 -7 6 -26 1 -27 -8 -34 -6 -49 13 -14 17 -16 26 -7 42 9 17 8 18
-5 8 -12 -11 -18 -9 -34 8 -17 19 -18 21 -1 30 9 6 17 15 17 20 0 6 -4 8 -9 5
-5 -4 -7 3 -4 14 3 11 9 18 13 15 5 -3 6 4 3 16 -4 14 -9 17 -16 10 -14 -14
-40 -14 -32 -1 4 6 11 8 16 5 5 -4 12 1 15 9 3 9 13 16 21 16 8 0 11 5 7 11
-4 7 -1 10 7 7 8 -3 21 0 29 7 17 14 76 23 220 33 155 11 159 11 154 -2z
m-1294 -16 c0 -5 -5 -10 -11 -10 -5 0 -7 5 -4 10 3 6 8 10 11 10 2 0 4 -4 4
-10z m-161 -88 c7 -13 6 -19 -2 -19 -7 0 -13 9 -13 19 0 10 1 18 3 18 1 0 7
-8 12 -18z m1371 8 c0 -13 -12 -19 -26 -13 -8 3 -12 8 -9 12 5 10 35 10 35 1z
m270 0 c0 -5 -8 -6 -17 -3 -13 5 -15 3 -9 -13 5 -14 4 -16 -5 -7 -6 6 -8 16
-5 22 9 14 36 15 36 1z m30 0 c0 -5 -2 -10 -4 -10 -3 0 -8 5 -11 10 -3 6 -1
10 4 10 6 0 11 -4 11 -10z m-185 -10 c3 -5 1 -10 -4 -10 -6 0 -11 5 -11 10 0
6 2 10 4 10 3 0 8 -4 11 -10z m-1420 -19 c3 -5 1 -12 -5 -16 -5 -3 -10 1 -10
9 0 18 6 21 15 7z m1574 -8 c-12 -15 -12 -16 4 -10 9 3 17 3 17 -2 0 -13 -39
-45 -47 -38 -3 4 -1 7 6 7 7 0 11 8 9 18 -3 17 8 42 19 42 3 0 -1 -8 -8 -17z
m-1624 -13 c3 -5 1 -10 -4 -10 -6 0 -11 5 -11 10 0 6 2 10 4 10 3 0 8 -4 11
-10z m1275 -10 c0 -5 -5 -10 -11 -10 -5 0 -7 5 -4 10 3 6 8 10 11 10 2 0 4 -4
4 -10z m375 -59 c-6 -5 -25 10 -25 20 0 5 6 4 14 -3 8 -7 12 -15 11 -17z m-55
-3 c0 -10 2 -10 9 0 7 11 9 11 14 -2 5 -12 0 -16 -18 -16 -16 0 -25 6 -25 15
0 8 5 15 10 15 6 0 10 -6 10 -12z m-1933 -50 c-3 -7 -5 -2 -5 12 0 14 2 19 5
13 2 -7 2 -19 0 -25z m409 -5 c-10 -11 -36 -12 -36 -2 0 5 10 9 22 9 12 0 18
-3 14 -7z m1864 -3 c0 -5 -5 -10 -11 -10 -5 0 -7 5 -4 10 3 6 8 10 11 10 2 0
4 -4 4 -10z m-5 -114 c-2 -94 -2 -95 29 -124 39 -37 106 -79 140 -88 30 -7 81
-32 115 -56 27 -19 30 -11 -34 -127 -20 -35 -49 -78 -65 -95 -17 -16 -30 -34
-30 -38 0 -5 -13 -14 -30 -19 -16 -6 -28 -14 -25 -19 3 -4 -1 -13 -9 -19 -10
-8 -17 -6 -31 10 -23 24 -27 46 -10 46 8 0 12 -9 10 -19 -7 -32 12 -10 20 24
13 56 13 79 -2 66 -17 -14 -18 13 -1 30 9 9 9 12 0 12 -7 0 -12 -4 -12 -10 0
-5 -5 -10 -10 -10 -6 0 -10 6 -9 13 3 19 -19 67 -31 67 -6 0 -9 4 -5 9 3 5 -3
12 -13 15 -25 8 -40 45 -32 76 4 14 2 31 -4 39 -9 12 -8 13 4 6 12 -7 13 -6 4
6 -13 16 -15 79 -2 79 5 0 5 8 1 18 -10 21 -10 113 1 130 4 7 2 12 -5 12 -10
0 -10 3 -1 12 7 7 12 20 12 30 0 10 6 18 13 18 11 0 13 -21 12 -94z m-702 60
c4 -10 1 -13 -9 -9 -15 6 -19 23 -5 23 5 0 11 -7 14 -14z m-33 -18 c10 -21 10
-21 -3 -6 -8 10 -18 14 -22 10 -5 -4 -5 -1 -1 6 10 17 14 15 26 -10z m-1176
-69 c-6 -11 -24 -2 -24 11 0 5 7 7 15 4 8 -4 12 -10 9 -15z m-140 -31 c-3 -4
0 -8 6 -8 22 0 4 -23 -21 -27 -16 -2 -20 0 -11 6 8 4 13 11 13 15 -1 3 -1 16
-1 29 0 17 2 19 9 7 6 -8 7 -18 5 -22z m0 -57 c8 18 1 -30 -9 -56 l-7 -20 17
20 c16 19 16 19 13 -14 -5 -45 -35 -52 -35 -9 0 16 -6 34 -14 39 -10 6 -10 9
-1 9 6 0 11 3 11 8 -1 4 -1 14 0 22 1 12 3 13 10 1 7 -11 10 -11 15 0z m-72
-46 c-8 -28 -32 -48 -32 -26 0 6 5 11 11 11 5 0 7 4 4 10 -3 5 0 16 7 24 17
19 19 16 10 -19z m-162 0 c0 -16 -27 -32 -36 -22 -7 6 17 36 29 37 4 0 7 -7 7
-15z m71 -16 c8 -15 8 -19 0 -15 -6 4 -11 3 -11 -3 0 -5 4 -12 9 -15 5 -3 7
-15 4 -25 -4 -16 -1 -19 19 -14 18 4 20 3 8 -6 -10 -7 -11 -11 -3 -11 7 0 19
13 27 29 31 58 41 45 44 -58 2 -53 3 -105 2 -116 -5 -87 1 -165 13 -165 4 0 5
-4 2 -10 -3 -5 -1 -10 5 -10 6 0 8 -5 4 -12 -4 -7 -3 -8 5 -4 8 5 10 19 6 39
-4 21 -3 27 3 19 7 -11 10 -9 15 7 3 11 -1 22 -8 25 -19 7 -14 81 5 81 9 0 15
-9 14 -22 -1 -13 3 -20 9 -16 5 3 7 0 5 -8 -3 -8 -13 -13 -23 -11 -15 3 -15 1
3 -18 11 -12 18 -28 16 -35 -3 -7 1 -15 9 -18 24 -9 100 1 108 15 6 9 9 8 9
-7 0 -17 2 -17 10 -5 9 13 10 13 11 0 0 -8 5 -4 9 10 8 24 8 24 9 3 1 -13 6
-23 12 -23 6 0 9 7 5 15 -3 10 1 15 11 15 24 0 4 16 -30 24 -19 4 -26 3 -22
-3 4 -7 0 -8 -10 -4 -13 5 -14 7 -3 14 11 7 11 9 -1 9 -11 0 -11 3 -1 15 6 8
9 19 5 25 -3 5 -1 10 5 10 8 0 10 -9 6 -25 -4 -14 -2 -25 4 -25 5 0 10 8 10
18 0 14 2 15 9 2 6 -8 7 -18 5 -22 -3 -4 0 -8 5 -8 6 0 11 11 11 25 0 14 4 25
9 25 5 0 8 -14 7 -32 -1 -27 3 -33 25 -38 19 -4 25 -11 24 -27 -1 -13 4 -23
12 -23 16 0 17 -15 1 -27 -7 -6 -38 -23 -68 -39 -30 -15 -63 -34 -72 -42 -11
-10 -44 -15 -90 -16 -47 -1 -73 -6 -76 -14 -2 -7 -8 -10 -13 -6 -5 3 -9 0 -9
-5 0 -11 13 -15 38 -12 24 3 12 -30 -15 -41 -16 -7 -37 -19 -48 -29 -18 -15
-137 -61 -143 -55 -1 2 2 24 7 49 4 26 5 65 1 88 -4 22 -6 51 -3 62 4 19 3 20
-7 7 -10 -13 -11 -12 -5 5 30 87 33 114 23 243 -2 24 0 46 5 49 4 2 5 8 2 12
-2 5 0 22 5 39 5 19 5 34 -1 37 -16 11 -10 45 9 45 10 0 13 3 6 8 -15 10 -25
42 -14 42 6 0 10 7 10 15 0 21 7 19 21 -6z m-264 -71 c-3 -7 -5 -2 -5 12 0 14
2 19 5 13 2 -7 2 -19 0 -25z m431 -26 c-1 -15 -8 -37 -14 -50 -11 -22 -12 -22
-17 -2 -3 11 -1 20 3 20 4 0 6 9 3 20 -3 11 -10 20 -15 20 -6 0 -5 6 2 14 17
22 40 8 38 -22z m-601 -1 c12 11 12 9 2 -14 -9 -20 -14 -23 -24 -14 -7 7 -10
18 -7 26 4 11 7 12 10 3 3 -10 7 -10 19 -1z m707 -9 c3 -5 -1 -9 -9 -9 -8 0
-15 4 -15 9 0 4 4 8 9 8 6 0 12 -4 15 -8z m-591 -32 c-3 -12 -8 -19 -11 -16
-5 6 5 36 12 36 2 0 2 -9 -1 -20z m237 0 c0 -5 -4 -10 -10 -10 -5 0 -10 5 -10
10 0 6 5 10 10 10 6 0 10 -4 10 -10z m10 -30 c0 -5 -5 -10 -11 -10 -5 0 -7 5
-4 10 3 6 8 10 11 10 2 0 4 -4 4 -10z m240 -20 c0 -29 -1 -29 -18 -12 -16 15
-16 18 -2 29 20 17 20 17 20 -17z m290 -14 c0 -12 -5 -7 -19 24 -11 24 -11 24
3 6 9 -11 16 -24 16 -30z m95 22 c-7 -22 -7 -22 8 -3 12 15 18 17 29 7 8 -6
18 -9 21 -5 4 3 7 1 7 -5 0 -6 14 -19 31 -28 l31 -16 -33 -20 c-35 -21 -57
-24 -99 -14 -25 6 -25 6 -2 -5 12 -7 22 -16 22 -22 0 -5 -7 -4 -15 3 -12 10
-15 10 -15 -3 0 -8 6 -18 13 -20 6 -3 -7 -6 -30 -6 l-42 -1 11 33 c15 44 22
49 15 10 -4 -19 -2 -33 3 -33 9 0 11 6 14 38 1 7 7 16 14 21 16 10 5 41 -13
35 -7 -3 -16 0 -21 7 -5 9 -2 10 10 6 12 -5 19 0 26 18 12 31 24 33 15 3z
m1655 12 c0 -5 -2 -10 -4 -10 -3 0 -8 5 -11 10 -3 6 -1 10 4 10 6 0 11 -4 11
-10z m-1785 -18 c-3 -3 -11 0 -18 7 -9 10 -8 11 6 5 10 -3 15 -9 12 -12z
m1815 -8 c0 -8 -19 -13 -24 -6 -3 5 1 9 9 9 8 0 15 -2 15 -3z m-1839 -51 c-12
-20 -14 -14 -5 12 4 9 9 14 11 11 3 -2 0 -13 -6 -23z m53 16 c-3 -6 0 -16 7
-21 11 -8 10 -8 -4 -4 -10 3 -24 6 -30 6 -7 0 -3 7 7 15 24 18 30 19 20 4z
m-103 -46 c-12 -20 -14 -14 -5 12 4 9 9 14 11 11 3 -2 0 -13 -6 -23z m1234 9
c-3 -3 -11 0 -18 7 -9 10 -8 11 6 5 10 -3 15 -9 12 -12z m-1161 -8 c3 -8 2
-12 -4 -9 -6 3 -10 10 -10 16 0 14 7 11 14 -7z m1176 -8 c0 -3 -4 -8 -10 -11
-5 -3 -10 -1 -10 4 0 6 5 11 10 11 6 0 10 -2 10 -4z m-1310 -16 c0 -5 -4 -10
-10 -10 -5 0 -10 5 -10 10 0 6 5 10 10 10 6 0 10 -4 10 -10z m170 -9 c0 -4
-11 -6 -25 -3 -14 2 -25 6 -25 8 0 2 11 4 25 4 14 0 25 -4 25 -9z m1107 -1
c12 0 12 -2 -1 -16 -14 -14 -18 -14 -31 0 -20 19 -19 30 1 22 9 -3 22 -6 31
-6z m722 -10 c-6 -5 -19 -6 -27 -2 -13 4 -12 7 4 12 23 9 41 1 23 -10z m-1879
-17 c0 -10 -4 -14 -8 -8 -4 6 -11 13 -16 18 -5 4 -2 7 7 7 10 0 17 -8 17 -17z
m34 -9 c5 -14 4 -15 -9 -4 -17 14 -19 20 -6 20 5 0 12 -7 15 -16z m60 7 c3 -5
-3 -11 -14 -14 -14 -4 -18 -11 -14 -24 5 -15 4 -15 -5 -3 -9 13 -11 12 -11 -4
0 -16 -3 -17 -12 -8 -9 9 -8 15 7 25 10 8 15 19 11 25 -5 8 0 12 13 12 11 0
22 -4 25 -9z m1126 -50 c0 -5 -9 -13 -20 -16 -27 -9 -25 -24 3 -19 20 4 21 4
2 -5 -32 -15 -40 -13 -40 12 0 17 5 23 16 20 9 -3 20 0 23 6 9 13 16 14 16 2z
m88 -36 c-3 -3 -9 2 -12 12 -6 14 -5 15 5 6 7 -7 10 -15 7 -18z m119 3 c-3 -8
-6 -5 -6 6 -1 11 2 17 5 13 3 -3 4 -12 1 -19z m443 -4 c0 -6 -26 -34 -33 -34
-2 0 -4 7 -4 15 0 8 4 12 9 9 4 -3 8 0 8 5 0 6 5 11 10 11 6 0 10 -3 10 -6z
m-590 -19 c0 -2 -6 -5 -13 -8 -8 -3 -14 1 -14 8 0 7 6 11 14 8 7 -3 13 -6 13
-8z m228 -20 c-3 -3 -9 2 -12 12 -6 14 -5 15 5 6 7 -7 10 -15 7 -18z m-201
-17 c-3 -7 -5 -2 -5 12 0 14 2 19 5 13 2 -7 2 -19 0 -25z m143 22 c0 -5 -5
-10 -11 -10 -5 0 -7 5 -4 10 3 6 8 10 11 10 2 0 4 -4 4 -10z m357 -14 c-6 -8
-15 -12 -19 -9 -4 2 -2 10 5 17 6 8 15 12 19 9 4 -2 2 -10 -5 -17z m-317 4 c0
-5 -7 -7 -15 -4 -8 4 -15 8 -15 10 0 2 7 4 15 4 8 0 15 -4 15 -10z m78 -15
c-3 -3 -9 2 -12 12 -6 14 -5 15 5 6 7 -7 10 -15 7 -18z m-198 -25 c0 -5 -2
-10 -4 -10 -3 0 -8 5 -11 10 -3 6 -1 10 4 10 6 0 11 -4 11 -10z m237 4 c-3 -3
-12 -4 -19 -1 -8 3 -5 6 6 6 11 1 17 -2 13 -5z m-37 -14 c0 -5 -2 -10 -4 -10
-3 0 -8 5 -11 10 -3 6 -1 10 4 10 6 0 11 -4 11 -10z m-87 -24 c17 -25 17 -42
2 -66 -8 -13 -7 -13 8 -1 20 16 22 52 5 69 -7 7 -8 12 -4 12 4 0 16 -10 26
-22 14 -18 20 -20 33 -10 12 10 16 10 21 -3 4 -11 -2 -15 -26 -15 -31 0 -31
-1 -12 -16 10 -8 13 -12 6 -9 -8 4 -22 -2 -34 -15 -19 -20 -21 -20 -33 -3 -11
15 -11 21 2 35 15 16 10 43 -7 33 -4 -3 -10 4 -13 15 -7 27 7 25 26 -4z m62 3
c11 -16 1 -19 -13 -3 -7 8 -8 14 -3 14 5 0 13 -5 16 -11z m107 -4 c0 -5 -5
-11 -10 -13 -5 -1 -9 4 -9 13 0 9 4 14 9 13 5 -2 10 -8 10 -13z m61 -8 c3 -8
-1 -14 -9 -14 -8 0 -14 6 -14 14 0 7 4 13 9 13 5 0 11 -6 14 -13z m-102 -9 c1
-7 0 -20 -1 -28 -2 -12 3 -11 19 4 16 14 21 16 21 5 0 -10 2 -11 8 -2 5 8 13
9 22 3 16 -10 17 -10 -30 -14 -8 -1 -14 -7 -12 -14 2 -11 -10 -14 -35 -11 -5
1 -7 6 -5 12 2 6 -3 6 -12 -2 -11 -9 -16 -9 -21 0 -8 12 14 31 27 23 12 -8 9
11 -4 24 -9 9 -8 12 5 12 9 0 18 -6 18 -12z m2209 -42 c0 -3 -4 -8 -10 -11 -5
-3 -10 -1 -10 4 0 6 5 11 10 11 6 0 10 -2 10 -4z m0 -86 c13 -8 13 -10 -2 -10
-9 0 -20 5 -23 10 -8 13 5 13 25 0z m-4913 -124 c-8 -21 3 -27 20 -10 15 14
38 10 28 -6 -6 -10 28 -5 47 6 8 5 9 2 4 -11 -5 -15 -4 -16 9 -5 13 11 15 9
15 -14 0 -23 -3 -26 -20 -21 -11 3 -20 3 -20 -2 0 -5 -14 -10 -32 -11 -40 -3
-40 -4 -33 -35 6 -24 10 -25 63 -22 32 2 64 5 72 6 33 8 11 -22 -67 -94 -45
-41 -79 -78 -76 -81 4 -3 2 -6 -3 -6 -20 0 -37 61 -29 103 12 64 14 149 4 175
-10 25 -5 42 13 42 5 0 8 -6 5 -14z m1250 -90 c59 -57 64 -65 49 -77 -9 -8
-22 -19 -29 -25 -10 -9 -19 -5 -38 19 -13 17 -30 36 -37 44 -7 7 -11 17 -7 23
3 6 -1 7 -9 4 -10 -4 -16 -1 -16 9 0 8 -7 18 -16 21 -15 6 -15 8 1 26 10 11
22 20 27 20 6 0 39 -29 75 -64z m247 -222 c5 -14 4 -15 -9 -4 -17 14 -19 20
-6 20 5 0 12 -7 15 -16z m331 -344 c10 -11 16 -20 13 -20 -3 0 -13 9 -23 20
-10 11 -16 20 -13 20 3 0 13 -9 23 -20z"/>
<path d="M1749 2611 c7 -5 10 -14 7 -20 -4 -6 -3 -11 2 -11 8 0 22 22 22 34 0
1 -10 3 -22 3 -16 2 -19 0 -9 -6z"/>
<path d="M1820 2604 c0 -10 -6 -14 -15 -10 -8 3 -15 2 -15 -3 0 -5 9 -11 20
-14 16 -4 20 0 20 19 0 13 -2 24 -5 24 -3 0 -5 -7 -5 -16z"/>
<path d="M1885 2600 c-4 -6 -12 -7 -18 -3 -7 3 -3 -3 7 -15 24 -28 26 -28 24
3 -3 28 -4 30 -13 15z"/>
<path d="M1920 2590 c-9 -6 -10 -10 -3 -10 6 0 15 5 18 10 8 12 4 12 -15 0z"/>
<path d="M1840 2574 c0 -8 5 -12 10 -9 6 4 8 11 5 16 -9 14 -15 11 -15 -7z"/>
<path d="M1985 2580 c-3 -5 -1 -18 4 -27 9 -15 10 -14 9 10 -3 30 -4 32 -13
17z"/>
<path d="M1710 2535 c-11 -13 -10 -14 5 -9 12 5 16 4 12 -3 -4 -6 0 -13 8 -17
22 -8 25 7 5 27 -15 16 -18 16 -30 2z"/>
<path d="M1756 2485 c-14 -38 34 -55 94 -34 20 7 16 8 -19 5 -47 -5 -80 2 -62
13 5 4 6 12 2 20 -6 10 -10 9 -15 -4z"/>
<path d="M1720 2474 c0 -8 5 -12 10 -9 6 3 10 10 10 16 0 5 -4 9 -10 9 -5 0
-10 -7 -10 -16z"/>
<path d="M1886 2444 c-11 -7 -18 -16 -15 -18 2 -2 13 2 23 10 11 7 18 16 15
18 -2 2 -13 -2 -23 -10z"/>
<path d="M1716 2435 c4 -8 9 -13 13 -10 5 2 13 -12 19 -32 8 -27 8 -39 1 -44
-17 -10 4 -17 26 -8 11 4 15 8 8 8 -6 1 -14 10 -17 21 -3 11 -9 30 -12 41 -5
16 -3 20 7 13 12 -6 12 -5 0 9 -17 22 -53 23 -45 2z"/>
<path d="M1890 2304 c0 -15 3 -23 8 -18 4 5 10 11 13 14 4 3 1 11 -7 18 -12
11 -14 8 -14 -14z"/>
<path d="M1943 2312 c1 -23 17 -31 17 -9 1 8 4 7 13 -3 7 -9 24 -14 40 -12 32
4 37 22 5 21 -36 -1 -62 5 -70 16 -4 5 -6 0 -5 -13z"/>
<path d="M1770 2305 c0 -8 2 -15 4 -15 2 0 6 7 10 15 3 8 1 15 -4 15 -6 0 -10
-7 -10 -15z"/>
<path d="M1850 2305 c7 -8 17 -12 22 -9 6 4 5 10 -3 15 -22 14 -33 10 -19 -6z"/>
<path d="M1805 2300 c4 -6 11 -8 16 -5 14 9 11 15 -7 15 -8 0 -12 -5 -9 -10z"/>
<path d="M1733 2285 c-10 -10 -9 -14 3 -19 8 -3 13 -2 9 3 -3 5 0 11 7 13 7 3
8 7 3 10 -6 3 -15 0 -22 -7z"/>
<path d="M2080 2290 c0 -12 28 -21 35 -11 2 5 -4 11 -15 14 -11 3 -20 2 -20
-3z"/>
<path d="M1973 2255 c0 -8 6 -16 14 -19 11 -4 11 -1 3 14 -13 24 -17 25 -17 5z"/>
<path d="M1746 2234 c-8 -20 -8 -24 2 -24 4 0 8 9 9 20 2 24 -3 26 -11 4z"/>
<path d="M1685 2210 c-3 -5 -5 -10 -3 -11 26 -6 35 -4 35 7 0 16 -23 19 -32 4z"/>
<path d="M1813 2185 c-10 -10 -9 -16 0 -24 9 -7 16 -5 24 9 15 23 -5 35 -24
15z"/>
<path d="M1870 2175 c7 -9 15 -13 17 -11 7 7 -7 26 -19 26 -6 0 -6 -6 2 -15z"/>
<path d="M1956 2169 c3 -5 13 -9 23 -9 9 0 22 -5 29 -12 9 -9 13 -7 18 6 4 12
9 14 14 6 9 -14 57 -23 64 -11 6 10 -24 21 -65 25 -21 2 -26 -1 -21 -13 5 -13
3 -14 -9 -5 -18 15 -61 25 -53 13z"/>
<path d="M2166 2163 c-6 -14 -5 -15 5 -6 7 7 10 15 7 18 -3 3 -9 -2 -12 -12z"/>
<path d="M1840 2166 c0 -2 7 -7 16 -10 8 -3 12 -2 9 4 -6 10 -25 14 -25 6z"/>
<path d="M1753 2115 c-7 -8 -13 -18 -13 -24 0 -5 -6 -12 -12 -14 -8 -3 -6 -6
5 -6 21 -1 60 -38 52 -51 -3 -5 3 -13 12 -19 11 -6 13 -11 5 -11 -19 0 -6 -17
18 -23 16 -4 23 1 31 20 7 20 6 29 -3 35 -10 6 -10 8 1 8 27 0 5 10 -33 15
-21 2 -44 12 -52 22 -17 23 -18 37 0 30 10 -4 12 0 9 14 -6 22 -5 22 -20 4z"/>
<path d="M1870 2042 c0 -14 6 -22 16 -22 14 0 15 3 3 18 -7 9 -15 19 -16 21
-2 2 -3 -5 -3 -17z"/>
<path d="M1953 2026 c-16 -19 -4 -29 16 -14 13 10 14 10 4 -2 -15 -16 -17 -30
-5 -30 5 0 14 10 20 23 l11 22 1 -25 1 -25 10 23 c5 13 13 21 18 17 6 -3 7
-13 4 -22 -4 -11 -2 -14 8 -11 8 3 12 12 10 19 -2 8 -4 20 -4 27 0 14 -23 16
-32 2 -4 -7 -12 -7 -25 0 -23 12 -22 12 -37 -4z"/>
<path d="M1906 2015 c-3 -8 -1 -15 4 -15 6 0 10 7 10 15 0 8 -2 15 -4 15 -2 0
-6 -7 -10 -15z"/>
<path d="M2076 2016 c21 -15 30 -14 19 3 -3 6 -14 11 -23 11 -13 0 -13 -2 4
-14z"/>
<path d="M1680 1985 c0 -5 5 -17 10 -25 5 -8 10 -10 10 -5 0 6 -5 17 -10 25
-5 8 -10 11 -10 5z"/>
<path d="M2033 1897 c4 -10 7 -23 7 -28 0 -5 5 -9 10 -9 15 0 12 20 -7 38 -16
16 -16 16 -10 -1z"/>
<path d="M1881 1887 c-8 -10 -7 -14 4 -14 8 0 15 6 15 14 0 7 -2 13 -4 13 -2
0 -9 -6 -15 -13z"/>
<path d="M1945 1890 c-3 -5 -1 -10 4 -10 6 0 11 5 11 10 0 6 -2 10 -4 10 -3 0
-8 -4 -11 -10z"/>
<path d="M1990 1886 c0 -2 7 -6 15 -10 8 -3 15 -1 15 4 0 6 -7 10 -15 10 -8 0
-15 -2 -15 -4z"/>
<path d="M2076 1882 c-15 -14 -4 -24 20 -18 17 5 23 3 19 -4 -3 -5 -1 -10 4
-10 6 0 11 4 11 9 0 18 -42 35 -54 23z"/>
<path d="M1752 1840 c0 -14 2 -19 5 -12 2 6 2 18 0 25 -3 6 -5 1 -5 -13z"/>
<path d="M2486 1784 c-5 -14 -4 -15 9 -4 17 14 19 20 6 20 -5 0 -12 -7 -15
-16z"/>
<path d="M2040 1750 c0 -11 2 -20 4 -20 2 0 6 9 9 20 3 11 1 20 -4 20 -5 0 -9
-9 -9 -20z"/>
<path d="M1935 1750 c-3 -6 1 -7 9 -4 18 7 21 14 7 14 -6 0 -13 -4 -16 -10z"/>
<path d="M2528 1753 c6 -2 18 -2 25 0 6 3 1 5 -13 5 -14 0 -19 -2 -12 -5z"/>
<path d="M2060 1740 c0 -5 5 -10 11 -10 5 0 7 5 4 10 -3 6 -8 10 -11 10 -2 0
-4 -4 -4 -10z"/>
<path d="M2675 1640 c4 -6 11 -8 16 -5 14 9 11 15 -7 15 -8 0 -12 -5 -9 -10z"/>
<path d="M2731 1551 c-8 -15 -8 -22 1 -27 7 -4 10 -4 6 1 -4 4 -3 14 4 22 6 7
8 16 5 19 -3 3 -10 -3 -16 -15z"/>
<path d="M2765 1549 c-4 -5 1 -19 10 -29 15 -17 15 -19 -2 -24 -23 -8 -48 -56
-28 -56 7 0 16 12 19 26 5 20 10 23 20 15 9 -8 12 -6 11 7 0 9 -5 23 -9 30 -4
7 -5 19 -2 27 6 17 -10 20 -19 4z"/>
<path d="M2794 1538 c-7 -11 18 -10 36 2 11 7 10 9 -8 7 -13 -1 -26 -5 -28 -9z"/>
<path d="M3047 1459 c-17 -10 -15 -29 4 -29 6 0 8 4 5 9 -4 5 0 11 6 14 7 2
11 7 8 10 -3 3 -13 1 -23 -4z"/>
<path d="M2773 1377 c-13 -5 -23 -14 -23 -19 0 -5 -4 -6 -10 -3 -6 3 -7 -1 -4
-10 6 -14 8 -14 25 1 11 9 19 13 19 8 0 -5 5 -1 11 9 14 24 9 27 -18 14z"/>
<path d="M2695 1370 c-3 -6 1 -7 9 -4 18 7 21 14 7 14 -6 0 -13 -4 -16 -10z"/>
<path d="M2950 1360 c0 -5 5 -10 10 -10 6 0 10 5 10 10 0 6 -4 10 -10 10 -5 0
-10 -4 -10 -10z"/>
<path d="M2676 1312 c-3 -5 1 -9 9 -9 8 0 15 4 15 9 0 4 -4 8 -9 8 -6 0 -12
-4 -15 -8z"/>
<path d="M2710 1311 c0 -5 6 -14 14 -20 11 -9 15 -8 20 5 4 9 4 19 1 22 -3 3
-5 0 -5 -6 0 -7 -5 -12 -11 -12 -5 0 -7 5 -4 10 3 6 1 10 -4 10 -6 0 -11 -4
-11 -9z"/>
<path d="M2860 1290 c0 -6 -4 -8 -10 -5 -5 3 -15 -3 -22 -15 -15 -23 -33 -27
-24 -5 6 17 -9 21 -19 5 -5 -8 -11 -7 -21 1 -11 9 -14 9 -14 -1 0 -7 -7 -10
-16 -6 -9 3 -12 2 -9 -5 4 -5 15 -7 26 -4 10 4 19 2 19 -2 0 -5 7 -18 15 -29
11 -13 13 -14 9 -3 -8 24 27 29 49 7 9 -10 16 -18 15 -19 -2 0 -14 -3 -27 -5
-41 -7 -39 -17 2 -11 23 4 37 2 37 -5 0 -6 6 -5 16 3 15 12 14 14 -5 23 -11 5
-23 17 -26 27 -4 11 -11 19 -16 19 -6 0 -7 5 -4 10 4 6 10 8 15 5 5 -3 12 0
16 7 5 8 10 6 16 -8 8 -19 8 -19 5 0 -2 21 -27 35 -27 16z"/>
<path d="M2680 1276 c0 -2 8 -10 18 -17 15 -13 16 -12 3 4 -13 16 -21 21 -21
13z"/>
<path d="M3202 1265 c-13 -16 -5 -19 22 -9 9 3 13 10 10 15 -7 13 -17 11 -32
-6z"/>
<path d="M2905 1230 c-3 -6 1 -7 9 -4 18 7 21 14 7 14 -6 0 -13 -4 -16 -10z"/>
<path d="M2726 1205 c-13 -9 -15 -15 -7 -15 8 0 20 -8 28 -17 13 -16 13 -16 3
5 -6 12 -8 27 -5 32 8 13 4 12 -19 -5z"/>
<path d="M2687 2300 c-3 -11 -2 -20 3 -20 12 0 21 28 11 35 -5 2 -11 -4 -14
-15z"/>
<path d="M2556 2300 c-17 -6 -18 -7 -3 -13 9 -3 19 -2 23 4 9 15 2 18 -20 9z"/>
<path d="M2765 2190 c3 -5 8 -10 11 -10 2 0 4 5 4 10 0 6 -5 10 -11 10 -5 0
-7 -4 -4 -10z"/>
<path d="M3532 1754 c-7 -8 -10 -19 -6 -26 5 -7 10 -3 16 12 10 28 7 33 -10
14z"/>
<path d="M3550 1731 c0 -6 4 -13 10 -16 6 -3 7 1 4 9 -7 18 -14 21 -14 7z"/>
<path d="M3540 1701 c0 -5 5 -13 10 -16 6 -3 10 -2 10 4 0 5 -4 13 -10 16 -5
3 -10 2 -10 -4z"/>
<path d="M1295 1760 c3 -5 8 -10 11 -10 2 0 4 5 4 10 0 6 -5 10 -11 10 -5 0
-7 -4 -4 -10z"/>
<path d="M1292 1724 c10 -10 20 -16 22 -13 3 3 -5 11 -17 18 -21 13 -21 12 -5
-5z"/>
<path d="M1272 1688 c4 -10 1 -19 -9 -22 -10 -4 -13 -12 -8 -24 4 -9 7 -30 6
-47 -1 -23 1 -26 9 -15 8 12 10 12 10 1 0 -9 6 -7 19 7 10 12 24 22 30 22 9 0
9 5 1 20 -7 14 -8 20 0 20 6 0 3 12 -7 26 -9 15 -19 22 -21 15 -3 -9 -8 -9
-20 1 -13 11 -15 10 -10 -4z"/>
<path d="M1637 1533 c-14 -13 -6 -25 8 -13 11 9 15 9 15 1 0 -7 5 -9 10 -6 6
4 8 11 5 16 -7 11 -29 12 -38 2z"/>
<path d="M1824 1707 c-8 -9 -7 -15 5 -24 11 -9 12 -12 3 -13 -7 0 -10 -5 -7
-10 4 -7 12 -7 24 0 10 5 21 7 24 4 3 -3 3 4 0 16 -4 15 -8 18 -13 10 -10 -17
-31 -3 -23 15 6 18 2 18 -13 2z"/>
<path d="M1090 4650 l-25 -20 28 0 c18 0 26 4 21 11 -3 6 0 15 7 20 8 5 10 9
4 9 -5 0 -21 -9 -35 -20z"/>
<path d="M821 4628 c0 -16 2 -18 6 -8 3 8 11 18 17 22 7 5 4 8 -6 8 -12 0 -18
-7 -17 -22z"/>
<path d="M1150 4632 c0 -7 -7 -12 -16 -12 -13 0 -14 -3 -5 -13 6 -8 8 -17 4
-20 -3 -4 -3 -7 1 -7 9 0 28 51 21 58 -3 3 -5 0 -5 -6z"/>
<path d="M1042 4622 c-10 -7 -10 -14 1 -36 l15 -27 6 26 c4 14 12 25 19 25 8
0 7 4 -3 10 -18 12 -22 12 -38 2z"/>
<path d="M3845 4588 c3 -13 8 -32 9 -43 2 -12 10 -19 20 -19 9 1 16 -3 16 -8
0 -6 6 -5 15 2 12 10 11 15 -10 38 -14 15 -25 30 -25 33 0 4 -7 10 -16 13 -13
5 -15 2 -9 -16z"/>
<path d="M856 4508 c-12 -45 -5 -62 9 -23 17 48 17 45 6 45 -5 0 -11 -10 -15
-22z"/>
<path d="M823 4505 c-18 -20 -16 -35 3 -35 10 0 14 6 11 14 -3 7 0 19 6 25 6
6 7 11 2 11 -6 -1 -16 -7 -22 -15z"/>
<path d="M1145 4490 c-3 -5 -1 -10 4 -10 6 0 11 5 11 10 0 6 -2 10 -4 10 -3 0
-8 -4 -11 -10z"/>
<path d="M1130 4455 c-9 -11 -9 -15 -1 -15 9 0 9 -5 1 -20 -9 -16 -8 -20 5
-20 8 0 15 3 16 8 7 64 2 75 -21 47z"/>
<path d="M820 4448 c0 -9 -6 -19 -12 -21 -10 -4 -10 -6 0 -6 14 -1 28 26 18
36 -3 4 -6 -1 -6 -9z"/>
<path d="M3848 4414 l-3 -46 32 38 c40 46 41 54 4 54 -27 0 -29 -3 -33 -46z"/>
<path d="M1035 4431 c-6 -11 13 -26 22 -17 4 3 1 6 -6 6 -7 0 -9 5 -6 10 3 6
4 10 1 10 -3 0 -7 -4 -11 -9z"/>
<path d="M1185 4420 c3 -5 8 -10 11 -10 2 0 4 5 4 10 0 6 -5 10 -11 10 -5 0
-7 -4 -4 -10z"/>
<path d="M1027 4359 c7 -7 15 -10 18 -7 3 3 -2 9 -12 12 -14 6 -15 5 -6 -5z"/>
<path d="M3920 4363 c-20 -8 -29 -23 -23 -40 8 -21 20 -15 32 17 5 17 9 30 8
29 -1 0 -9 -3 -17 -6z"/>
<path d="M610 4340 c0 -5 5 -10 10 -10 6 0 10 5 10 10 0 6 -4 10 -10 10 -5 0
-10 -4 -10 -10z"/>
<path d="M811 4321 c-8 -15 -7 -20 5 -25 10 -4 13 -13 9 -26 -4 -11 -2 -20 4
-20 15 0 14 43 -1 59 -11 11 -10 13 4 8 12 -4 15 -2 11 9 -7 19 -20 18 -32 -5z"/>
<path d="M1140 4320 c0 -19 3 -21 12 -12 9 9 9 15 0 24 -9 9 -12 7 -12 -12z"/>
<path d="M3886 4303 c-11 -12 -6 -19 14 -20 11 -1 20 2 20 7 0 10 -26 20 -34
13z"/>
<path d="M1146 4273 c5 -5 12 -12 16 -18 4 -6 8 -2 8 8 0 9 -7 17 -17 17 -9 0
-12 -3 -7 -7z"/>
<path d="M1045 4260 c3 -5 8 -10 11 -10 2 0 4 5 4 10 0 6 -5 10 -11 10 -5 0
-7 -4 -4 -10z"/>
<path d="M814 4164 c3 -9 6 -18 6 -20 0 -2 4 -4 9 -4 5 0 7 9 4 20 -3 11 -10
20 -15 20 -6 0 -7 -7 -4 -16z"/>
<path d="M3847 4159 c7 -7 15 -10 18 -7 3 3 -2 9 -12 12 -14 6 -15 5 -6 -5z"/>
<path d="M1132 4142 c9 -11 13 -11 19 0 12 18 11 5 -1 -26 -5 -14 -7 -26 -4
-26 12 0 29 26 31 47 2 19 -2 22 -26 20 -23 -2 -27 -5 -19 -15z"/>
<path d="M3850 4131 c0 -5 3 -17 6 -25 5 -13 10 -14 20 -6 7 7 10 18 7 26 -6
15 -33 20 -33 5z"/>
<path d="M814 4085 c5 -31 4 -45 -4 -45 -6 0 -8 -4 -5 -10 9 -14 22 -12 22 3
0 6 4 24 8 40 5 18 3 27 -5 27 -7 0 -10 7 -6 15 3 8 1 15 -5 15 -8 0 -9 -15
-5 -45z"/>
<path d="M1035 4107 c-4 -10 -5 -21 -1 -24 3 -4 6 -1 6 5 0 6 7 9 15 6 8 -4
15 -1 15 6 0 6 -4 9 -9 6 -5 -4 -11 0 -14 6 -3 9 -7 7 -12 -5z"/>
<path d="M3843 3985 l1 -35 23 22 c30 28 29 48 -1 48 -21 0 -24 -4 -23 -35z"/>
<path d="M1086 3977 c3 -10 9 -15 12 -12 3 3 0 11 -7 18 -10 9 -11 8 -5 -6z"/>
<path d="M809 3977 c-2 -3 -9 -80 -9 -97 -1 -8 0 -49 0 -91 1 -42 0 -80 -1
-85 -1 -5 -1 -22 0 -39 1 -23 3 -27 11 -15 6 9 10 10 10 3 0 -6 -4 -14 -9 -17
-5 -3 -9 -77 -10 -165 0 -87 -1 -163 -3 -167 -1 -5 1 -26 5 -46 6 -29 11 -36
24 -31 11 4 14 3 9 -5 -4 -7 -2 -12 3 -12 6 0 11 7 11 15 0 8 5 15 10 15 6 0
10 -4 10 -10 0 -5 4 -10 9 -10 5 0 7 9 4 20 -4 14 0 20 11 20 9 0 17 6 17 13
1 6 3 22 4 33 2 17 -2 20 -19 16 -11 -3 -15 -7 -8 -10 7 -2 10 -8 6 -13 -3 -5
-12 -3 -20 5 -16 17 -19 30 -4 21 6 -3 10 -2 10 4 0 5 -6 11 -12 13 -9 3 -8
11 5 31 10 16 13 28 7 32 -6 3 -10 0 -11 -7 0 -7 -5 -2 -11 12 -6 14 -10 30
-9 35 9 35 8 45 -2 45 -7 0 -6 4 3 10 9 5 15 25 15 49 0 22 3 37 7 35 5 -3 8
2 8 10 0 9 -4 16 -10 16 -5 0 -10 9 -10 21 0 11 -4 18 -8 15 -10 -6 -10 40 1
50 4 4 0 16 -10 26 -15 17 -15 18 0 18 10 0 17 5 17 11 0 5 -5 7 -10 4 -7 -4
-10 7 -8 32 2 36 5 47 28 93 15 30 12 48 -11 55 -11 4 -18 13 -15 20 3 10 -29
30 -35 22z"/>
<path d="M1160 3960 c-8 -5 -11 -12 -8 -16 4 -3 14 1 23 10 18 17 9 21 -15 6z"/>
<path d="M3905 3917 c-14 -16 -13 -69 2 -74 7 -3 10 4 6 19 -3 16 -2 19 4 10
7 -8 9 -1 9 23 -1 37 -5 41 -21 22z"/>
<path d="M623 3892 c-1 -22 0 -24 9 -8 6 10 6 22 2 26 -5 5 -10 -3 -11 -18z"/>
<path d="M931 3912 c-16 -5 -14 -32 4 -38 15 -6 38 12 42 33 2 11 -20 14 -46
5z"/>
<path d="M1085 3910 c3 -5 11 -10 16 -10 6 0 7 5 4 10 -3 6 -11 10 -16 10 -6
0 -7 -4 -4 -10z"/>
<path d="M1158 3899 c-3 -8 1 -20 8 -27 15 -14 17 -7 5 22 -6 15 -9 16 -13 5z"/>
<path d="M1120 3889 c0 -5 5 -7 10 -4 6 3 10 8 10 11 0 2 -4 4 -10 4 -5 0 -10
-5 -10 -11z"/>
<path d="M1117 3863 c-4 -3 -7 -11 -7 -17 0 -6 5 -5 12 2 6 6 9 14 7 17 -3 3
-9 2 -12 -2z"/>
<path d="M1133 3844 c-9 -19 -8 -24 3 -24 18 0 30 28 18 40 -5 5 -14 -1 -21
-16z"/>
<path d="M1205 3860 c3 -6 -1 -13 -9 -16 -12 -5 -13 -9 -3 -25 17 -28 25 -23
25 16 0 19 -4 35 -10 35 -5 0 -6 -5 -3 -10z"/>
<path d="M3395 3810 c-3 -5 -1 -10 4 -10 6 0 11 5 11 10 0 6 -2 10 -4 10 -3 0
-8 -4 -11 -10z"/>
<path d="M3911 3804 c0 -11 3 -14 6 -6 3 7 2 16 -1 19 -3 4 -6 -2 -5 -13z"/>
<path d="M922 3783 c-6 -3 -10 -9 -6 -14 3 -5 1 -9 -4 -9 -17 0 -11 -50 7 -50
13 -1 13 -3 -4 -16 -20 -15 -19 -16 5 -12 16 2 29 13 38 32 15 35 15 39 0 30
-7 -5 -9 -2 -5 9 7 18 -12 36 -31 30z"/>
<path d="M3369 3763 c-10 -11 -10 -14 -1 -9 7 4 12 2 12 -4 0 -7 7 -9 16 -6
12 4 15 2 10 -9 -3 -8 -1 -15 4 -15 19 0 10 32 -10 37 -11 3 -17 9 -14 14 9
16 -3 10 -17 -8z"/>
<path d="M5516 3725 c-3 -8 -1 -15 4 -15 6 0 10 7 10 15 0 8 -2 15 -4 15 -2 0
-6 -7 -10 -15z"/>
<path d="M988 3683 c7 -3 16 -2 19 1 4 3 -2 6 -13 5 -11 0 -14 -3 -6 -6z"/>
<path d="M3760 3650 c0 -6 -4 -8 -10 -5 -5 3 -10 -1 -10 -10 0 -11 7 -15 24
-13 37 5 56 -19 56 -69 0 -34 5 -49 23 -64 12 -10 28 -18 35 -19 6 0 12 -5 12
-11 0 -6 7 -9 15 -5 8 3 21 -1 29 -9 26 -26 43 5 44 80 0 36 6 73 13 81 6 8
10 16 8 17 -2 1 -12 8 -21 16 -24 18 -91 24 -138 11 -28 -8 -46 -8 -60 0 -14
8 -20 8 -20 0z"/>
<path d="M5502 3635 c4 -5 3 -14 -3 -22 -8 -8 -8 -13 -1 -13 6 0 17 -3 26 -6
25 -10 19 24 -6 37 -13 6 -20 8 -16 4z"/>
<path d="M4058 3623 c7 -3 16 -2 19 1 4 3 -2 6 -13 5 -11 0 -14 -3 -6 -6z"/>
<path d="M900 3599 c0 -5 5 -7 10 -4 6 3 10 8 10 11 0 2 -4 4 -10 4 -5 0 -10
-5 -10 -11z"/>
<path d="M1113 3596 c4 -10 1 -13 -8 -10 -10 4 -12 0 -8 -15 4 -17 8 -19 20
-10 11 9 16 8 27 -6 13 -18 36 -14 36 7 0 6 -7 5 -16 -3 -15 -12 -16 -11 -9
10 5 18 4 22 -6 16 -9 -6 -11 -3 -6 8 5 13 1 17 -14 17 -14 0 -19 -5 -16 -14z"/>
<path d="M3353 3582 c10 -10 14 -22 10 -26 -4 -4 1 -4 11 0 13 5 17 4 12 -4
-4 -8 -2 -10 8 -6 12 5 11 10 -7 30 -11 13 -27 24 -35 24 -13 0 -12 -3 1 -18z"/>
<path d="M904 3560 c0 -11 1 -20 3 -20 1 0 7 9 13 20 8 15 8 20 -3 20 -7 0
-13 -9 -13 -20z"/>
<path d="M3421 3534 c0 -11 3 -14 6 -6 3 7 2 16 -1 19 -3 4 -6 -2 -5 -13z"/>
<path d="M3448 3492 c9 -11 20 -17 25 -15 9 5 -18 33 -32 33 -6 0 -3 -8 7 -18z"/>
<path d="M3015 3479 c-4 -6 -5 -12 -2 -15 2 -3 7 2 10 11 7 17 1 20 -8 4z"/>
<path d="M2983 3446 c-6 -8 -9 -17 -5 -21 4 -3 -1 -11 -10 -16 -10 -5 -15 -15
-12 -23 3 -7 -2 -13 -10 -13 -8 0 -12 5 -9 10 3 5 0 8 -8 5 -8 -3 -14 -10 -14
-15 0 -20 -13 -25 -32 -13 -16 9 -15 10 7 5 21 -5 22 -4 7 5 -9 6 -15 15 -13
19 3 4 -1 8 -9 8 -8 0 -15 -5 -15 -10 0 -5 -6 -4 -13 2 -8 6 -17 8 -20 4 -4
-3 -7 2 -8 13 0 10 -3 14 -5 7 -3 -7 -12 -9 -20 -6 -8 3 -14 1 -14 -5 0 -5 12
-13 28 -17 18 -5 22 -9 12 -13 -8 -3 -20 -12 -26 -20 -9 -12 -13 -12 -27 2 -9
9 -20 17 -24 18 -21 2 -32 11 -26 21 3 5 1 7 -5 4 -14 -10 -3 -47 13 -41 7 3
15 -4 18 -15 7 -30 -2 -26 -40 16 -19 20 -33 33 -32 27 4 -21 -2 -26 -18 -13
-9 8 -18 10 -20 4 -3 -11 -209 -13 -219 -2 -4 3 -20 -1 -36 -9 -16 -9 -37 -13
-46 -9 -8 3 -18 1 -22 -5 -4 -6 -24 -13 -46 -16 -21 -3 -45 -11 -54 -19 -9 -8
-22 -15 -28 -15 -13 0 -15 -10 -14 -48 1 -28 43 -66 54 -49 5 7 5 -3 1 -22
l-6 -34 59 6 c32 4 84 9 114 12 30 3 60 8 67 10 10 3 25 -19 24 -35 0 -3 -17
-6 -38 -8 -44 -3 -51 -8 -33 -25 10 -10 12 -9 6 3 -4 8 0 6 9 -5 12 -13 19
-16 22 -8 2 7 10 10 16 8 42 -12 68 -15 62 -5 -3 5 -2 10 4 10 5 0 12 -6 14
-12 4 -9 8 -10 14 -2 4 6 16 10 25 8 10 -1 22 5 27 14 5 9 13 13 17 9 5 -5 2
-12 -6 -17 -8 -5 -11 -12 -6 -17 4 -4 12 0 17 10 6 9 19 17 30 17 21 0 22 24
1 26 -7 1 -17 2 -24 3 -19 2 3 18 35 25 22 5 27 3 27 -11 0 -15 2 -16 10 -3 5
8 7 24 5 35 -3 11 -2 14 1 8 11 -24 22 -13 29 27 4 22 11 40 16 40 6 0 7 -6 3
-12 -8 -14 36 20 48 37 13 17 43 -10 40 -36 -2 -20 0 -21 9 -9 9 12 10 11 6
-7 -3 -13 -1 -23 4 -23 5 0 9 6 10 13 0 6 5 1 11 -13 6 -14 10 -31 9 -37 -1
-7 3 -13 8 -13 7 0 7 -9 3 -22 -11 -32 -4 -58 16 -58 10 0 13 -3 7 -8 -6 -4
-11 -28 -13 -54 -2 -44 -1 -48 20 -48 18 0 23 6 25 26 1 33 20 46 53 39 21 -4
22 -4 8 5 -10 6 -22 19 -27 29 -9 15 -6 17 17 15 15 -2 42 -5 61 -7 29 -3 31
-2 15 10 -16 12 -15 13 15 13 18 0 30 -4 27 -8 -7 -12 97 -12 111 0 7 6 10 15
6 21 -4 6 2 8 15 5 12 -4 22 -2 22 4 0 5 6 6 12 2 17 -11 48 -12 48 -3 0 4 -6
10 -12 12 -8 4 -4 8 10 12 12 4 22 12 22 17 0 7 5 6 14 -1 10 -9 16 -8 26 4 8
9 23 21 34 26 19 9 19 9 4 -4 -11 -9 -14 -18 -7 -28 5 -8 9 -9 9 -3 0 19 49
66 61 58 7 -4 9 0 5 14 -4 11 -9 33 -11 48 -7 48 -32 108 -38 93 -4 -9 -6 -8
-6 5 -1 11 -4 16 -7 13 -4 -3 -16 -1 -28 5 -11 7 -25 11 -30 10 -5 -2 -12 1
-15 7 -4 6 -20 6 -41 1 -19 -4 -29 -8 -22 -9 7 -1 10 -6 6 -12 -4 -8 -9 -7
-15 2 -9 14 -79 20 -79 7 0 -5 -5 -8 -11 -8 -6 0 -8 8 -5 18 5 15 4 15 -7 2
-6 -8 -17 -16 -22 -16 -6 -1 -31 -5 -57 -8 -29 -4 -49 -3 -53 4 -9 14 -25 13
-25 -2 0 -7 -11 -14 -24 -14 -17 -1 -23 2 -19 12 3 8 0 14 -6 14 -7 0 -9 9 -5
25 7 28 4 30 -13 11z m-2 -59 c-10 -9 -11 -8 -5 6 3 10 9 15 12 12 3 -3 0 -11
-7 -18z m-291 -191 c0 -3 -4 -8 -10 -11 -5 -3 -10 -1 -10 4 0 6 5 11 10 11 6
0 10 -2 10 -4z m470 -5 c0 -6 -5 -13 -11 -16 -6 -4 -8 -13 -5 -21 3 -8 0 -11
-9 -8 -8 3 -13 11 -12 17 1 7 -5 11 -13 9 -10 -1 -9 2 4 13 22 17 46 20 46 6z
m-647 -36 c4 -8 3 -16 -1 -19 -4 -3 -9 4 -9 15 -2 23 3 25 10 4z m449 -107
c-7 -7 -12 -8 -12 -2 0 6 3 14 7 17 3 4 9 5 12 2 2 -3 -1 -11 -7 -17z m-21
-51 c-10 -9 -11 -8 -5 6 3 10 9 15 12 12 3 -3 0 -11 -7 -18z"/>
<path d="M902 3411 c-6 -16 -8 -32 -5 -35 14 -14 21 -4 20 29 -1 19 -2 35 -3
35 -1 0 -7 -13 -12 -29z"/>
<path d="M5325 3390 c3 -5 8 -10 11 -10 2 0 4 5 4 10 0 6 -5 10 -11 10 -5 0
-7 -4 -4 -10z"/>
<path d="M2770 3371 c0 -5 5 -13 10 -16 6 -3 10 -2 10 4 0 5 -4 13 -10 16 -5
3 -10 2 -10 -4z"/>
<path d="M5077 3363 c-4 -3 -7 -11 -7 -17 0 -6 5 -5 12 2 6 6 9 14 7 17 -3 3
-9 2 -12 -2z"/>
<path d="M5675 3362 c14 -10 35 -59 35 -82 0 -11 10 -28 22 -39 17 -16 24 -18
35 -9 11 9 17 8 24 -3 5 -8 7 -20 4 -26 -8 -24 3 -13 40 37 28 37 36 57 33 82
-3 32 -4 32 -53 33 -27 0 -58 -3 -67 -8 -12 -5 -18 -4 -18 4 0 6 -7 9 -15 6
-8 -4 -17 -2 -20 3 -4 6 -12 10 -18 10 -8 0 -8 -3 -2 -8z"/>
<path d="M5040 3350 c-9 -6 -10 -10 -3 -10 6 0 15 5 18 10 8 12 4 12 -15 0z"/>
<path d="M5440 3345 c0 -19 69 -105 85 -105 8 0 19 9 25 19 7 13 23 21 48 23
34 3 37 6 40 36 2 21 -1 32 -10 32 -7 0 -52 2 -100 4 -66 3 -88 1 -88 -9z"/>
<path d="M4966 3341 c-4 -7 -14 -10 -22 -7 -7 3 -16 1 -19 -4 -4 -7 -13 -7
-24 0 -22 11 -32 4 -23 -18 8 -23 61 -100 73 -107 5 -4 21 7 35 24 27 32 58
41 67 19 3 -7 6 8 6 35 l1 47 -39 0 c-22 0 -41 5 -43 12 -3 9 -6 9 -12 -1z"/>
<path d="M5127 3310 c3 -34 22 -90 29 -90 3 0 13 5 24 12 15 10 22 9 38 -6 19
-16 21 -16 40 11 10 15 27 44 37 63 10 19 22 38 27 41 5 3 -37 6 -95 5 l-104
-1 4 -35z"/>
<path d="M4690 3330 c-8 -5 -31 -10 -50 -10 -20 0 -42 -6 -49 -12 -10 -11 -11
-9 -5 7 6 19 6 19 -11 3 -15 -14 -16 -23 -6 -75 16 -81 16 -82 28 -94 7 -7 10
-3 8 15 -4 30 7 39 45 38 22 0 32 9 58 52 38 62 40 76 10 69 -19 -4 -20 -3 -8
6 19 13 1 14 -20 1z"/>
<path d="M4335 3309 c-4 -5 -11 -6 -17 -3 -13 9 1 -17 49 -85 21 -30 43 -56
48 -58 6 -2 19 14 30 34 10 21 27 48 38 60 10 11 17 29 15 40 -4 19 -22 22
-79 13 -19 -4 -45 -3 -57 1 -12 5 -24 4 -27 -2z"/>
<path d="M4022 3301 c-16 -10 -7 -74 14 -108 8 -13 12 -33 9 -46 -4 -15 -1
-28 9 -36 18 -15 18 -14 20 44 1 36 3 40 27 38 20 -1 31 8 52 43 15 25 27 50
27 57 0 14 -137 22 -158 8z"/>
<path d="M970 3289 c0 -5 5 -7 10 -4 6 3 10 8 10 11 0 2 -4 4 -10 4 -5 0 -10
-5 -10 -11z"/>
<path d="M3793 3283 c-11 -28 40 -93 74 -93 12 0 23 -4 23 -10 0 -19 25 -10
43 16 14 19 17 34 12 63 l-6 39 -71 -2 c-43 0 -72 -6 -75 -13z"/>
<path d="M1554 3225 c-3 -8 -3 -19 1 -26 6 -8 3 -9 -11 -1 -12 7 -25 7 -36 1
-17 -9 -15 -14 19 -64 21 -30 41 -54 44 -55 4 0 9 9 12 20 7 29 36 25 49 -7
13 -32 15 -26 20 64 3 50 2 52 -19 46 -35 -8 -76 5 -69 22 3 8 3 15 0 15 -2 0
-7 -7 -10 -15z"/>
<path d="M5420 3191 c0 -31 13 -47 30 -36 6 4 4 17 -5 36 -19 37 -25 37 -25 0z"/>
<path d="M5596 3198 c-22 -31 -20 -40 7 -36 16 2 23 11 25 31 4 33 -11 35 -32
5z"/>
<path d="M1706 3190 c4 -14 9 -46 11 -72 5 -53 18 -61 35 -23 15 33 -8 121
-27 105 -9 -8 -15 -7 -19 2 -3 7 -3 2 0 -12z"/>
<path d="M4759 3198 c0 -7 -3 -25 -5 -40 -3 -16 0 -28 5 -28 5 0 9 18 9 40 0
37 -7 57 -9 28z"/>
<path d="M2175 3188 c11 -6 23 -16 27 -22 5 -7 8 -8 8 0 0 15 -22 34 -39 34
-12 -1 -11 -4 4 -12z"/>
<path d="M5043 3189 c-16 -16 -17 -49 -3 -49 13 0 23 24 18 45 -2 13 -5 14
-15 4z"/>
<path d="M5727 3194 c-4 -4 -7 -14 -7 -23 0 -11 3 -12 11 -4 6 6 10 16 7 23
-2 6 -7 8 -11 4z"/>
<path d="M1087 3177 c3 -5 -4 -7 -14 -5 -32 5 -29 -10 17 -83 44 -70 59 -83
61 -51 0 9 2 28 4 42 2 14 -2 41 -7 62 -9 29 -16 37 -39 40 -15 3 -25 0 -22
-5z"/>
<path d="M5143 3174 c-3 -8 -1 -20 6 -27 8 -8 11 -4 11 16 0 30 -7 35 -17 11z"/>
<path d="M5305 3167 c-4 -10 -5 -21 -1 -24 10 -10 18 4 13 24 -4 17 -4 17 -12
0z"/>
<path d="M823 3159 c-10 -4 -22 -4 -27 -1 -5 3 -6 -3 -2 -13 3 -10 11 -50 16
-88 6 -39 13 -73 15 -75 6 -7 35 18 35 30 0 5 11 24 24 41 25 34 56 94 56 109
0 9 -89 7 -117 -3z"/>
<path d="M1835 3159 c-11 -16 -1 -19 13 -3 7 8 8 14 3 14 -5 0 -13 -5 -16 -11z"/>
<path d="M637 3076 c29 -44 53 -83 53 -88 0 -4 5 -8 10 -8 6 0 10 15 10 33 0
18 8 44 17 57 10 14 18 39 18 55 l0 30 -81 0 -81 0 54 -79z"/>
<path d="M4196 3144 c-8 -22 1 -31 16 -16 9 9 9 15 1 23 -7 7 -12 5 -17 -7z"/>
<path d="M341 3145 c-1 -6 3 -15 7 -20 5 -6 15 -26 22 -45 7 -19 19 -42 26
-50 6 -8 14 -24 16 -35 2 -14 15 2 46 58 47 87 48 92 27 84 -8 -4 -17 -2 -20
2 -3 5 -13 7 -23 5 -50 -10 -92 -11 -96 0 -3 7 -5 7 -5 1z"/>
<path d="M140 3129 c0 -5 5 -7 10 -4 6 3 10 8 10 11 0 2 -4 4 -10 4 -5 0 -10
-5 -10 -11z"/>
<path d="M298 3134 c-4 -3 -34 -5 -67 -5 -69 0 -77 -12 -38 -59 12 -15 34 -48
50 -74 35 -60 52 -56 53 15 0 30 4 71 8 92 7 36 5 43 -6 31z"/>
<path d="M2330 3130 c0 -6 4 -9 9 -6 5 4 12 1 14 -4 3 -6 4 -5 3 2 -3 15 -26
23 -26 8z"/>
<path d="M2370 3120 c0 -5 5 -10 11 -10 5 0 7 5 4 10 -3 6 -8 10 -11 10 -2 0
-4 -4 -4 -10z"/>
<path d="M0 3053 c0 -34 2 -63 4 -63 6 0 53 85 61 108 4 16 0 19 -30 19 l-35
0 0 -64z"/>
<path d="M2985 3020 c-3 -5 -1 -10 4 -10 6 0 11 5 11 10 0 6 -2 10 -4 10 -3 0
-8 -4 -11 -10z"/>
<path d="M1830 2961 c0 -5 7 -12 16 -15 14 -5 15 -4 4 9 -14 17 -20 19 -20 6z"/>
<path d="M3386 2828 c3 -5 10 -6 15 -3 13 9 11 12 -6 12 -8 0 -12 -4 -9 -9z"/>
<path d="M1067 2784 c-1 -1 -78 -5 -172 -8 -93 -4 -210 -9 -260 -11 -49 -3
-160 -7 -245 -11 -85 -3 -171 -7 -190 -8 -19 -1 -72 -3 -117 -4 l-83 -2 0 -68
0 -68 98 2 c53 1 160 5 237 9 77 4 171 7 208 8 37 0 70 4 72 8 3 4 21 3 40 -1
20 -4 52 -6 73 -3 28 4 42 1 52 -13 11 -12 12 -18 3 -21 -7 -3 -10 -19 -7 -41
6 -52 8 -251 5 -352 -3 -78 4 -120 28 -160 6 -11 23 -14 67 -12 82 5 193 5
229 0 35 -6 53 1 34 13 -11 6 -9 16 9 48 21 38 21 46 -1 42 -4 -1 -7 26 -6 59
1 36 6 60 13 60 6 0 5 4 -3 9 -12 8 -12 12 -3 24 10 12 9 18 -4 31 -18 19 -18
24 -11 304 4 117 2 162 -7 163 -6 0 -21 2 -34 3 -12 2 -23 2 -25 0z m86 -669
c-3 -9 -8 -14 -10 -11 -3 3 -2 9 2 15 9 16 15 13 8 -4z"/>
<path d="M5755 2654 c9 -9 19 -13 23 -10 3 4 0 11 -8 16 -24 15 -33 11 -15 -6z"/>
<path d="M5515 2650 c-3 -5 -1 -10 4 -10 6 0 11 5 11 10 0 6 -2 10 -4 10 -3 0
-8 -4 -11 -10z"/>
<path d="M1228 2608 c-3 -17 -1 -25 5 -21 7 4 8 -1 3 -13 -5 -13 -4 -16 3 -9
6 6 7 22 2 40 l-8 30 -5 -27z"/>
<path d="M4390 2590 c0 -12 8 -12 35 0 18 8 17 9 -7 9 -16 1 -28 -3 -28 -9z"/>
<path d="M4460 2589 c0 -5 5 -7 10 -4 6 3 10 8 10 11 0 2 -4 4 -10 4 -5 0 -10
-5 -10 -11z"/>
<path d="M5497 2567 c-3 -8 -2 -18 1 -23 10 -13 42 -17 42 -5 0 5 3 16 6 25 5
12 0 16 -19 16 -14 0 -27 -6 -30 -13z"/>
<path d="M5580 2550 c0 -5 7 -10 15 -10 8 0 15 5 15 10 0 6 -7 10 -15 10 -8 0
-15 -4 -15 -10z"/>
<path d="M5350 2439 c0 -5 5 -7 10 -4 6 3 10 8 10 11 0 2 -4 4 -10 4 -5 0 -10
-5 -10 -11z"/>
<path d="M1300 2434 c0 -3 5 -14 10 -24 6 -12 7 -21 0 -25 -5 -3 -6 -13 -3
-22 5 -12 10 -6 18 23 7 21 10 42 8 47 -5 8 -33 10 -33 1z"/>
<path d="M340 2395 c0 -8 2 -15 4 -15 2 0 6 7 10 15 3 8 1 15 -4 15 -6 0 -10
-7 -10 -15z"/>
<path d="M1341 2374 c0 -11 3 -14 6 -6 3 7 2 16 -1 19 -3 4 -6 -2 -5 -13z"/>
<path d="M5517 2329 c7 -7 15 -10 18 -7 3 3 -2 9 -12 12 -14 6 -15 5 -6 -5z"/>
<path d="M1286 2321 c-11 -17 5 -40 22 -33 15 5 15 4 3 -11 -9 -11 -10 -17 -2
-17 6 0 11 3 12 8 0 4 2 17 3 29 2 19 0 20 -17 11 -17 -9 -19 -8 -14 6 7 17 2
22 -7 7z"/>
<path d="M1335 2270 c-3 -5 -1 -10 4 -10 6 0 11 5 11 10 0 6 -2 10 -4 10 -3 0
-8 -4 -11 -10z"/>
<path d="M5753 2238 c4 -25 16 -31 36 -19 12 8 12 12 2 25 -20 24 -41 20 -38
-6z"/>
<path d="M1150 2179 c0 -5 5 -7 10 -4 6 3 10 8 10 11 0 2 -4 4 -10 4 -5 0 -10
-5 -10 -11z"/>
<path d="M5348 2142 c-6 -64 -6 -114 -6 -462 0 -29 -11 -119 -17 -138 -7 -20
30 -29 95 -23 6 1 10 10 10 21 0 12 9 24 22 29 25 9 68 3 68 -10 0 -5 11 -7
24 -5 13 2 35 -2 49 -9 14 -7 47 -15 74 -19 26 -3 53 -6 58 -7 22 -2 131 25
137 35 4 6 7 92 7 191 0 186 -6 213 -39 172 -13 -16 -19 -17 -25 -7 -5 9 -4
11 3 6 7 -4 12 -2 12 3 0 6 -9 16 -19 23 -15 9 -17 15 -9 25 6 7 17 13 24 13
8 0 14 4 14 9 0 6 -8 10 -17 10 -28 0 -46 5 -74 24 -14 10 -34 15 -43 11 -10
-4 -16 -1 -16 9 0 8 -6 18 -12 21 -7 3 -1 3 15 1 15 -2 27 1 27 6 0 5 -7 9
-16 9 -9 0 -14 6 -12 13 11 30 -65 60 -76 30 -3 -8 -2 -12 3 -9 5 4 7 -3 4
-15 -4 -13 -8 -17 -13 -9 -4 6 -11 11 -16 10 -4 -1 -11 6 -14 14 -4 13 -9 14
-30 3 -38 -19 -70 -19 -71 1 0 14 -2 14 -8 -2 -7 -18 -8 -18 -14 -3 -4 11 -18
17 -37 17 -16 0 -30 4 -30 9 0 18 -30 21 -32 3z m213 -216 c5 3 9 1 9 -5 0 -5
-4 -13 -10 -16 -5 -3 -10 -4 -10 -1 0 2 -2 10 -3 18 -2 7 -2 10 0 5 3 -4 9 -5
14 -1z m229 10 c0 -3 -4 -8 -10 -11 -5 -3 -10 -1 -10 4 0 6 5 11 10 11 6 0 10
-2 10 -4z m-255 -34 c-3 -3 -11 0 -18 7 -9 10 -8 11 6 5 10 -3 15 -9 12 -12z
m80 -2 c13 -6 15 -9 5 -9 -8 0 -22 4 -30 9 -18 12 -2 12 25 0z m245 -25 c0 -2
-6 -5 -13 -8 -8 -3 -14 1 -14 8 0 7 6 11 14 8 7 -3 13 -6 13 -8z m-30 -154 c0
-5 6 -11 14 -13 11 -2 11 -6 2 -14 -9 -8 -15 -5 -23 13 -6 12 -7 23 -2 23 5 0
9 -4 9 -9z"/>
<path d="M5510 2129 c0 -5 5 -7 10 -4 6 3 10 8 10 11 0 2 -4 4 -10 4 -5 0 -10
-5 -10 -11z"/>
<path d="M5766 2105 c4 -8 10 -15 15 -15 4 0 6 7 3 15 -4 8 -10 15 -15 15 -4
0 -6 -7 -3 -15z"/>
<path d="M1305 2040 c3 -5 10 -10 16 -10 5 0 9 5 9 10 0 6 -7 10 -16 10 -8 0
-12 -4 -9 -10z"/>
<path d="M5805 1950 c3 -5 8 -10 11 -10 2 0 4 5 4 10 0 6 -5 10 -11 10 -5 0
-7 -4 -4 -10z"/>
<path d="M1087 1763 c-4 -3 -7 -11 -7 -17 0 -6 5 -5 12 2 6 6 9 14 7 17 -3 3
-9 2 -12 -2z"/>
<path d="M1113 1742 c-9 -5 -6 -12 10 -21 19 -13 21 -12 10 1 -7 8 -10 18 -6
21 9 9 1 8 -14 -1z"/>
<path d="M952 1718 c-7 -7 -12 -16 -12 -21 0 -5 7 -1 16 8 9 9 14 18 12 20 -2
3 -10 -1 -16 -7z"/>
<path d="M790 1700 c0 -5 5 -10 11 -10 5 0 7 5 4 10 -3 6 -8 10 -11 10 -2 0
-4 -4 -4 -10z"/>
<path d="M614 1616 c-5 -21 -1 -32 15 -47 25 -23 81 -33 81 -14 0 8 3 20 6 29
5 12 -1 16 -25 16 -18 0 -38 9 -50 21 l-20 22 -7 -27z"/>
<path d="M968 1623 c-10 -2 -18 -9 -18 -15 0 -6 -6 -6 -15 2 -20 17 -20 -7 0
-34 8 -10 12 -23 8 -29 -3 -6 -1 -7 6 -3 6 4 18 3 25 -3 22 -19 50 21 39 55
-10 30 -18 34 -45 27z"/>
<path d="M1080 1623 c0 -4 5 -15 10 -23 8 -13 10 -13 10 2 0 9 -4 20 -10 23
-5 3 -10 3 -10 -2z"/>
<path d="M800 1602 c-18 -6 -11 -29 18 -59 l27 -30 1 31 c1 17 5 38 8 47 6 13
2 17 -18 15 -14 0 -30 -2 -36 -4z m40 -52 c0 -5 -2 -10 -4 -10 -3 0 -8 5 -11
10 -3 6 -1 10 4 10 6 0 11 -4 11 -10z"/>
<path d="M480 1592 c0 -10 33 -42 44 -42 4 0 6 10 4 23 -2 14 -11 23 -25 25
-13 2 -23 -1 -23 -6z"/>
<path d="M1095 1570 c-3 -5 -1 -10 4 -10 6 0 11 5 11 10 0 6 -2 10 -4 10 -3 0
-8 -4 -11 -10z"/>
<path d="M1100 1536 c7 -7 13 -7 20 0 6 6 3 10 -10 10 -13 0 -16 -4 -10 -10z"/>
<path d="M1130 1459 c0 -5 5 -7 10 -4 6 3 10 8 10 11 0 2 -4 4 -10 4 -5 0 -10
-5 -10 -11z"/>
<path d="M5430 1269 c0 -5 5 -7 10 -4 6 3 10 8 10 11 0 2 -4 4 -10 4 -5 0 -10
-5 -10 -11z"/>
<path d="M5705 1171 c3 -10 -1 -24 -10 -31 -17 -14 -21 -35 -5 -25 6 3 10 2
10 -4 0 -5 12 -4 28 5 33 17 49 18 56 2 3 -7 3 -2 0 11 -6 22 -4 24 25 18 19
-4 30 -3 26 2 -3 5 -1 12 5 16 25 16 4 23 -65 23 -68 1 -75 -1 -70 -17z"/>
</g>
</svg>
